0
SECTION
2
HEADER
9
$INSUNITS
70
4
9
$ACADVER
1
AC1014
9
$HANDSEED
5
FFFF
0
ENDSEC
0
SECTION
2
TABLES
0
TABLE
2
VPORT
5
8
100
AcDbSymbolTable
0
ENDTAB
0
TABLE
2
LTYPE
5
5
100
AcDbSymbolTable
0
LTYPE
5
14
100
AcDbSymbolTableRecord
100
AcDbLinetypeTableRecord
2
BYBLOCK
70
0
0
LTYPE
5
15
100
AcDbSymbolTableRecord
100
AcDbLinetypeTableRecord
2
BYLAYER
70
0
0
ENDTAB
0
TABLE
2
LAYER
5
2
100
AcDbSymbolTable
70
2
0
LAYER
5
50
100
AcDbSymbolTableRecord
100
AcDbLayerTableRecord
2
0
70
0
6
CONTINUOUS
0
ENDTAB
0
TABLE
2
STYLE
5
3
100
AcDbSymbolTable
70
1
0
STYLE
5
11
100
AcDbSymbolTableRecord
100
AcDbTextStyleTableRecord
2
STANDARD
70
0
0
ENDTAB
0
TABLE
2
VIEW
5
6
100
AcDbSymbolTable
70
0
0
ENDTAB
0
TABLE
2
UCS
5
7
100
AcDbSymbolTable
70
0
0
ENDTAB
0
TABLE
2
APPID
5
9
100
AcDbSymbolTable
70
2
0
APPID
5
12
100
AcDbSymbolTableRecord
100
AcDbRegAppTableRecord
2
ACAD
70
0
0
ENDTAB
0
TABLE
2
DIMSTYLE
5
A
100
AcDbSymbolTable
70
1
0
ENDTAB
0
TABLE
2
BLOCK_RECORD
5
1
100
AcDbSymbolTable
70
1
0
BLOCK_RECORD
5
1F
100
AcDbSymbolTableRecord
100
AcDbBlockTableRecord
2
*MODEL_SPACE
0
BLOCK_RECORD
5
1B
100
AcDbSymbolTableRecord
100
AcDbBlockTableRecord
2
*PAPER_SPACE
0
ENDTAB
0
ENDSEC
0
SECTION
2
BLOCKS
0
BLOCK
5
20
100
AcDbEntity
100
AcDbBlockBegin
2
*MODEL_SPACE
0
ENDBLK
5
21
100
AcDbEntity
100
AcDbBlockEnd
0
BLOCK
5
1C
100
AcDbEntity
100
AcDbBlockBegin
2
*PAPER_SPACE
0
ENDBLK
5
1D
100
AcDbEntity
100
AcDbBlockEnd
0
ENDSEC
0
SECTION
2
ENTITIES
0
CIRCLE
5
100
100
AcDbEntity
8
0
100
AcDbCircle
10
34.999939289583004
20
-0.042676794914838626
30
0
40
2.0000000000000018
210
0
220
-0
230
1
0
SPLINE
5
101
100
AcDbEntity
8
0
100
AcDbSpline
70
6
71
5
72
441
73
435
74
0
42
0.000000001
43
0.0000000001
44
0.0000000001
40
0
40
0
40
0
40
0
40
0
40
0
40
0.0023255813953488372
40
0.0046511627906976744
40
0.0069767441860465115
40
0.0093023255813953487
40
0.011627906976744186
40
0.013953488372093023
40
0.01627906976744186
40
0.018604651162790697
40
0.020930232558139535
40
0.023255813953488372
40
0.025581395348837209
40
0.027906976744186046
40
0.030232558139534883
40
0.03255813953488372
40
0.034883720930232558
40
0.037209302325581395
40
0.039534883720930232
40
0.041860465116279069
40
0.044186046511627906
40
0.046511627906976744
40
0.048837209302325581
40
0.051162790697674418
40
0.053488372093023255
40
0.055813953488372092
40
0.058139534883720929
40
0.060465116279069767
40
0.062790697674418611
40
0.065116279069767441
40
0.067441860465116271
40
0.069767441860465101
40
0.072093023255813932
40
0.074418604651162762
40
0.076744186046511592
40
0.079069767441860422
40
0.081395348837209253
40
0.083720930232558083
40
0.086046511627906913
40
0.088372093023255743
40
0.090697674418604574
40
0.093023255813953404
40
0.095348837209302234
40
0.097674418604651064
40
0.099999999999999895
40
0.10232558139534872
40
0.10465116279069756
40
0.10697674418604639
40
0.10930232558139522
40
0.11162790697674405
40
0.11395348837209288
40
0.11627906976744171
40
0.11860465116279054
40
0.12093023255813937
40
0.1232558139534882
40
0.12558139534883703
40
0.12790697674418586
40
0.13023255813953469
40
0.13255813953488352
40
0.13488372093023235
40
0.13720930232558118
40
0.13953488372093001
40
0.14186046511627884
40
0.14418604651162767
40
0.1465116279069765
40
0.14883720930232533
40
0.15116279069767416
40
0.15348837209302299
40
0.15581395348837182
40
0.15813953488372065
40
0.16046511627906948
40
0.16279069767441831
40
0.16511627906976714
40
0.16744186046511597
40
0.1697674418604648
40
0.17209302325581363
40
0.17441860465116246
40
0.17674418604651129
40
0.17906976744186012
40
0.18139534883720895
40
0.18372093023255778
40
0.18604651162790661
40
0.18837209302325544
40
0.19069767441860427
40
0.1930232558139531
40
0.19534883720930193
40
0.19767441860465076
40
0.19999999999999959
40
0.20232558139534843
40
0.20465116279069726
40
0.20697674418604609
40
0.20930232558139492
40
0.21162790697674375
40
0.21395348837209258
40
0.21627906976744141
40
0.21860465116279024
40
0.22093023255813907
40
0.2232558139534879
40
0.22558139534883673
40
0.22790697674418556
40
0.23023255813953439
40
0.23255813953488322
40
0.23488372093023205
40
0.23720930232558088
40
0.23953488372092971
40
0.24186046511627854
40
0.24418604651162737
40
0.2465116279069762
40
0.24883720930232503
40
0.25116279069767389
40
0.25348837209302272
40
0.25581395348837155
40
0.25813953488372038
40
0.26046511627906921
40
0.26279069767441804
40
0.26511627906976687
40
0.2674418604651157
40
0.26976744186046453
40
0.27209302325581336
40
0.27441860465116219
40
0.27674418604651102
40
0.27906976744185985
40
0.28139534883720868
40
0.28372093023255751
40
0.28604651162790634
40
0.28837209302325517
40
0.290697674418604
40
0.29302325581395283
40
0.29534883720930166
40
0.29767441860465049
40
0.29999999999999932
40
0.30232558139534815
40
0.30465116279069698
40
0.30697674418604581
40
0.30930232558139464
40
0.31162790697674347
40
0.3139534883720923
40
0.31627906976744113
40
0.31860465116278996
40
0.32093023255813879
40
0.32325581395348763
40
0.32558139534883646
40
0.32790697674418529
40
0.33023255813953412
40
0.33255813953488295
40
0.33488372093023178
40
0.33720930232558061
40
0.33953488372092944
40
0.34186046511627827
40
0.3441860465116271
40
0.34651162790697593
40
0.34883720930232476
40
0.35116279069767359
40
0.35348837209302242
40
0.35581395348837125
40
0.35813953488372008
40
0.36046511627906891
40
0.36279069767441774
40
0.36511627906976657
40
0.3674418604651154
40
0.36976744186046423
40
0.37209302325581306
40
0.37441860465116189
40
0.37674418604651072
40
0.37906976744185955
40
0.38139534883720838
40
0.38372093023255721
40
0.38604651162790604
40
0.38837209302325487
40
0.3906976744186037
40
0.39302325581395253
40
0.39534883720930136
40
0.39767441860465019
40
0.39999999999999902
40
0.40232558139534785
40
0.40465116279069668
40
0.40697674418604551
40
0.40930232558139434
40
0.41162790697674317
40
0.413953488372092
40
0.41627906976744083
40
0.41860465116278966
40
0.4209302325581385
40
0.42325581395348733
40
0.42558139534883616
40
0.42790697674418499
40
0.43023255813953382
40
0.43255813953488265
40
0.43488372093023148
40
0.43720930232558031
40
0.43953488372092914
40
0.44186046511627797
40
0.4441860465116268
40
0.44651162790697563
40
0.44883720930232446
40
0.45116279069767329
40
0.45348837209302212
40
0.45581395348837095
40
0.45813953488371978
40
0.46046511627906861
40
0.46279069767441744
40
0.46511627906976627
40
0.4674418604651151
40
0.46976744186046393
40
0.47209302325581276
40
0.47441860465116159
40
0.47674418604651042
40
0.47906976744185925
40
0.48139534883720808
40
0.48372093023255691
40
0.48604651162790574
40
0.48837209302325457
40
0.4906976744186034
40
0.49302325581395223
40
0.49534883720930106
40
0.49767441860464989
40
0.49999999999999872
40
0.50232558139534755
40
0.50465116279069644
40
0.50697674418604532
40
0.50930232558139421
40
0.5116279069767431
40
0.51395348837209198
40
0.51627906976744087
40
0.51860465116278975
40
0.52093023255813864
40
0.52325581395348753
40
0.52558139534883641
40
0.5279069767441853
40
0.53023255813953418
40
0.53255813953488307
40
0.53488372093023195
40
0.53720930232558084
40
0.53953488372092973
40
0.54186046511627861
40
0.5441860465116275
40
0.54651162790697638
40
0.54883720930232527
40
0.55116279069767415
40
0.55348837209302304
40
0.55581395348837193
40
0.55813953488372081
40
0.5604651162790697
40
0.56279069767441858
40
0.56511627906976747
40
0.56744186046511635
40
0.56976744186046524
40
0.57209302325581413
40
0.57441860465116301
40
0.5767441860465119
40
0.57906976744186078
40
0.58139534883720967
40
0.58372093023255855
40
0.58604651162790744
40
0.58837209302325633
40
0.59069767441860521
40
0.5930232558139541
40
0.59534883720930298
40
0.59767441860465187
40
0.60000000000000075
40
0.60232558139534964
40
0.60465116279069853
40
0.60697674418604741
40
0.6093023255813963
40
0.61162790697674518
40
0.61395348837209407
40
0.61627906976744296
40
0.61860465116279184
40
0.62093023255814073
40
0.62325581395348961
40
0.6255813953488385
40
0.62790697674418738
40
0.63023255813953627
40
0.63255813953488516
40
0.63488372093023404
40
0.63720930232558293
40
0.63953488372093181
40
0.6418604651162807
40
0.64418604651162958
40
0.64651162790697847
40
0.64883720930232736
40
0.65116279069767624
40
0.65348837209302513
40
0.65581395348837401
40
0.6581395348837229
40
0.66046511627907178
40
0.66279069767442067
40
0.66511627906976956
40
0.66744186046511844
40
0.66976744186046733
40
0.67209302325581621
40
0.6744186046511651
40
0.67674418604651398
40
0.67906976744186287
40
0.68139534883721176
40
0.68372093023256064
40
0.68604651162790953
40
0.68837209302325841
40
0.6906976744186073
40
0.69302325581395618
40
0.69534883720930507
40
0.69767441860465396
40
0.70000000000000284
40
0.70232558139535173
40
0.70465116279070061
40
0.7069767441860495
40
0.70930232558139839
40
0.71162790697674727
40
0.71395348837209616
40
0.71627906976744504
40
0.71860465116279393
40
0.72093023255814281
40
0.7232558139534917
40
0.72558139534884059
40
0.72790697674418947
40
0.73023255813953836
40
0.73255813953488724
40
0.73488372093023613
40
0.73720930232558501
40
0.7395348837209339
40
0.74186046511628279
40
0.74418604651163167
40
0.74651162790698056
40
0.74883720930232944
40
0.75116279069767833
40
0.75348837209302721
40
0.7558139534883761
40
0.75813953488372499
40
0.76046511627907387
40
0.76279069767442276
40
0.76511627906977164
40
0.76744186046512053
40
0.76976744186046941
40
0.7720930232558183
40
0.77441860465116719
40
0.77674418604651607
40
0.77906976744186496
40
0.78139534883721384
40
0.78372093023256273
40
0.78604651162791161
40
0.7883720930232605
40
0.79069767441860939
40
0.79302325581395827
40
0.79534883720930716
40
0.79767441860465604
40
0.80000000000000493
40
0.80232558139535382
40
0.8046511627907027
40
0.80697674418605159
40
0.80930232558140047
40
0.81162790697674936
40
0.81395348837209824
40
0.81627906976744713
40
0.81860465116279602
40
0.8209302325581449
40
0.82325581395349379
40
0.82558139534884267
40
0.82790697674419156
40
0.83023255813954044
40
0.83255813953488933
40
0.83488372093023822
40
0.8372093023255871
40
0.83953488372093599
40
0.84186046511628487
40
0.84418604651163376
40
0.84651162790698264
40
0.84883720930233153
40
0.85116279069768042
40
0.8534883720930293
40
0.85581395348837819
40
0.85813953488372707
40
0.86046511627907596
40
0.86279069767442484
40
0.86511627906977373
40
0.86744186046512262
40
0.8697674418604715
40
0.87209302325582039
40
0.87441860465116927
40
0.87674418604651816
40
0.87906976744186704
40
0.88139534883721593
40
0.88372093023256482
40
0.8860465116279137
40
0.88837209302326259
40
0.89069767441861147
40
0.89302325581396036
40
0.89534883720930925
40
0.89767441860465813
40
0.90000000000000702
40
0.9023255813953559
40
0.90465116279070479
40
0.90697674418605367
40
0.90930232558140256
40
0.91162790697675145
40
0.91395348837210033
40
0.91627906976744922
40
0.9186046511627981
40
0.92093023255814699
40
0.92325581395349587
40
0.92558139534884476
40
0.92790697674419365
40
0.93023255813954253
40
0.93255813953489142
40
0.9348837209302403
40
0.93720930232558919
40
0.93953488372093807
40
0.94186046511628696
40
0.94418604651163585
40
0.94651162790698473
40
0.94883720930233362
40
0.9511627906976825
40
0.95348837209303139
40
0.95581395348838027
40
0.95813953488372916
40
0.96046511627907805
40
0.96279069767442693
40
0.96511627906977582
40
0.9674418604651247
40
0.96976744186047359
40
0.97209302325582247
40
0.97441860465117136
40
0.97674418604652025
40
0.97906976744186913
40
0.98139534883721802
40
0.9837209302325669
40
0.98604651162791579
40
0.98837209302326468
40
0.99069767441861356
40
0.99302325581396245
40
0.99534883720931133
40
0.99767441860466022
40
1
40
1
40
1
40
1
40
1
40
1
41
1
41
1
41
1
41
1
41
1
41
1
41
1
41
1
41
1
41
1
41
1
41
1
41
1
41
1
41
1
41
1
41
1
41
1
41
1
41
1
41
1
41
1
41
1
41
1
41
1
41
1
41
1
41
1
41
1
41
1
41
1
41
1
41
1
41
1
41
1
41
1
41
1
41
1
41
1
41
1
41
1
41
1
41
1
41
1
41
1
41
1
41
1
41
1
41
1
41
1
41
1
41
1
41
1
41
1
41
1
41
1
41
1
41
1
41
1
41
1
41
1
41
1
41
1
41
1
41
1
41
1
41
1
41
1
41
1
41
1
41
1
41
1
41
1
41
1
41
1
41
1
41
1
41
1
41
1
41
1
41
1
41
1
41
1
41
1
41
1
41
1
41
1
41
1
41
1
41
1
41
1
41
1
41
1
41
1
41
1
41
1
41
1
41
1
41
1
41
1
41
1
41
1
41
1
41
1
41
1
41
1
41
1
41
1
41
1
41
1
41
1
41
1
41
1
41
1
41
1
41
1
41
1
41
1
41
1
41
1
41
1
41
1
41
1
41
1
41
1
41
1
41
1
41
1
41
1
41
1
41
1
41
1
41
1
41
1
41
1
41
1
41
1
41
1
41
1
41
1
41
1
41
1
41
1
41
1
41
1
41
1
41
1
41
1
41
1
41
1
41
1
41
1
41
1
41
1
41
1
41
1
41
1
41
1
41
1
41
1
41
1
41
1
41
1
41
1
41
1
41
1
41
1
41
1
41
1
41
1
41
1
41
1
41
1
41
1
41
1
41
1
41
1
41
1
41
1
41
1
41
1
41
1
41
1
41
1
41
1
41
1
41
1
41
1
41
1
41
1
41
1
41
1
41
1
41
1
41
1
41
1
41
1
41
1
41
1
41
1
41
1
41
1
41
1
41
1
41
1
41
1
41
1
41
1
41
1
41
1
41
1
41
1
41
1
41
1
41
1
41
1
41
1
41
1
41
1
41
1
41
1
41
1
41
1
41
1
41
1
41
1
41
1
41
1
41
1
41
1
41
1
41
1
41
1
41
1
41
1
41
1
41
1
41
1
41
1
41
1
41
1
41
1
41
1
41
1
41
1
41
1
41
1
41
1
41
1
41
1
41
1
41
1
41
1
41
1
41
1
41
1
41
1
41
1
41
1
41
1
41
1
41
1
41
1
41
1
41
1
41
1
41
1
41
1
41
1
41
1
41
1
41
1
41
1
41
1
41
1
41
1
41
1
41
1
41
1
41
1
41
1
41
1
41
1
41
1
41
1
41
1
41
1
41
1
41
1
41
1
41
1
41
1
41
1
41
1
41
1
41
1
41
1
41
1
41
1
41
1
41
1
41
1
41
1
41
1
41
1
41
1
41
1
41
1
41
1
41
1
41
1
41
1
41
1
41
1
41
1
41
1
41
1
41
1
41
1
41
1
41
1
41
1
41
1
41
1
41
1
41
1
41
1
41
1
41
1
41
1
41
1
41
1
41
1
41
1
41
1
41
1
41
1
41
1
41
1
41
1
41
1
41
1
41
1
41
1
41
1
41
1
41
1
41
1
41
1
41
1
41
1
41
1
41
1
41
1
41
1
41
1
41
1
41
1
41
1
41
1
41
1
41
1
41
1
41
1
41
1
41
1
41
1
41
1
41
1
41
1
41
1
41
1
41
1
41
1
41
1
41
1
41
1
41
1
41
1
41
1
41
1
41
1
41
1
41
1
41
1
41
1
41
1
41
1
41
1
41
1
41
1
41
1
41
1
41
1
41
1
41
1
41
1
41
1
41
1
41
1
41
1
41
1
41
1
41
1
41
1
41
1
41
1
41
1
41
1
41
1
41
1
41
1
41
1
41
1
41
1
41
1
41
1
41
1
41
1
41
1
41
1
41
1
41
1
41
1
41
1
41
1
41
1
41
1
41
1
41
1
41
1
41
1
41
1
41
1
41
1
10
-11.528669580023161
20
-4.8732833293254627
30
0
10
-11.549614170591422
20
-4.8791682307876778
30
0
10
-11.592583974462357
20
-4.8852075926358127
30
0
10
-11.660064309043733
20
-4.8775586995154301
30
0
10
-11.754797824814725
20
-4.8377605948634086
30
0
10
-11.87640469321456
20
-4.7539717370293886
30
0
10
-11.995560907787869
20
-4.6536062850110564
30
0
10
-12.106349276712741
20
-4.5525287966546211
30
0
10
-12.203186290732166
20
-4.4616884504584657
30
0
10
-12.281458751774107
20
-4.382642791714197
30
0
10
-12.338053444587933
20
-4.3095784597539764
30
0
10
-12.371923341551152
20
-4.2338506031922627
30
0
10
-12.384511797010196
20
-4.1473382567268926
30
0
10
-12.380549957067771
20
-4.0471534986977105
30
0
10
-12.36717682565331
20
-3.9356459559347794
30
0
10
-12.35201795231783
20
-3.817740382473596
30
0
10
-12.341677796825168
20
-3.6991725220660387
30
0
10
-12.339844105999704
20
-3.5841473220239797
30
0
10
-12.346223788199023
20
-3.4738790281479344
30
0
10
-12.358143200374979
20
-3.3676545332444037
30
0
10
-12.371763022381097
20
-3.2635234373655342
30
0
10
-12.383365922074749
20
-3.1590989225935329
30
0
10
-12.390812304631565
20
-3.052399630390676
30
0
10
-12.393509725399712
20
-2.9420532093415614
30
0
10
-12.391950851493194
20
-2.8273132328201673
30
0
10
-12.387400834322698
20
-2.7081250888926296
30
0
10
-12.381516052857652
20
-2.585206235736504
30
0
10
-12.37601224574885
20
-2.460011259916639
30
0
10
-12.372407945332393
20
-2.3343221947904631
30
0
10
-12.371741103114196
20
-2.2098947458485934
30
0
10
-12.374330606064607
20
-2.0881057801531355
30
0
10
-12.379436907272044
20
-1.9695448006126899
30
0
10
-12.385224483046686
20
-1.8538062534519977
30
0
10
-12.389503441138789
20
-1.7398382109244013
30
0
10
-12.390368458825966
20
-1.626194434989003
30
0
10
-12.386792109487974
20
-1.5113110243193457
30
0
10
-12.379449813680171
20
-1.3938062549076573
30
0
10
-12.370509187897362
20
-1.2726199325996275
30
0
10
-12.362700432740297
20
-1.1470272720319667
30
0
10
-12.358558284761047
20
-1.0166953087818871
30
0
10
-12.359683091900152
20
-0.88171043287032913
30
0
10
-12.365770051641068
20
-0.74264651480653698
30
0
10
-12.37476062087045
20
-0.60048665533763002
30
0
10
-12.38375589380218
20
-0.4564509777332092
30
0
10
-12.389696615096701
20
-0.31185291955381178
30
0
10
-12.390150226807425
20
-0.16794247400061518
30
0
10
-12.384027122607167
20
-0.025758067390295892
30
0
10
-12.372394584181759
20
0.11403356192937329
30
0
10
-12.357794880272255
20
0.25110432543051986
30
0
10
-12.343492664222005
20
0.38541948177385332
30
0
10
-12.332716327108376
20
0.51719864574045471
30
0
10
-12.327973319495493
20
0.64686989172575482
30
0
10
-12.330158560130664
20
0.77503723131484692
30
0
10
-12.338418491571144
20
0.90240337747815547
30
0
10
-12.350862375916279
20
1.0296471966480767
30
0
10
-12.36506662991115
20
1.1573064236047157
30
0
10
-12.378631037358174
20
1.2856724714662879
30
0
10
-12.389790300206595
20
1.4146459710503065
30
0
10
-12.397746191637648
20
1.5437211861584246
30
0
10
-12.402343841839905
20
1.6722506028462834
30
0
10
-12.403879508272988
20
1.7996589604397468
30
0
10
-12.402864362843752
20
1.9256632318298599
30
0
10
-12.3997870243075
20
2.0505235478393349
30
0
10
-12.394936486909621
20
2.1751809134684654
30
0
10
-12.388585925233123
20
2.3007976549770857
30
0
10
-12.381132553591039
20
2.4283691158917069
30
0
10
-12.373247687925158
20
2.558318915438905
30
0
10
-12.366038596477186
20
2.6900750271205065
30
0
10
-12.361159240203374
20
2.8217287992895281
30
0
10
-12.360221750539882
20
2.9508296359158632
30
0
10
-12.364253478721878
20
3.0751052598753157
30
0
10
-12.37313679149738
20
3.1932109059843503
30
0
10
-12.385056144974664
20
3.3054646045449205
30
0
10
-12.395938541649059
20
3.4145955688064227
30
0
10
-12.40113265239669
20
3.5243762349143664
30
0
10
-12.397236003348004
20
3.6381409886562892
30
0
10
-12.383628315703074
20
3.7575215813739482
30
0
10
-12.364697648435722
20
3.8806752464050898
30
0
10
-12.349750148414964
20
4.0022071129808481
30
0
10
-12.349612666156368
20
4.1155140680932547
30
0
10
-12.373940299338438
20
4.2146084388894689
30
0
10
-12.428437090682227
20
4.2960156985121518
30
0
10
-12.511596833126559
20
4.3609962046399993
30
0
10
-12.616498358809142
20
4.4142849042937007
30
0
10
-12.733641866634374
20
4.4621047553081352
30
0
10
-12.853284585044864
20
4.5105421396188969
30
0
10
-12.968303910057381
20
4.5635196156863342
30
0
10
-13.075816773915223
20
4.6217435209520232
30
0
10
-13.175812053422247
20
4.6839815535290255
30
0
10
-13.270330866412019
20
4.747941057711528
30
0
10
-13.362459087292322
20
4.811222278874614
30
0
10
-13.455329514130954
20
4.8724407427368837
30
0
10
-13.551390808075352
20
4.9315190161722997
30
0
10
-13.652080696760894
20
4.9889776573806452
30
0
10
-13.757352009776149
20
5.0454643922256484
30
0
10
-13.865344617302842
20
5.1012381689097666
30
0
10
-13.971769582126928
20
5.1555362243626863
30
0
10
-14.071394381778216
20
5.2071919060698786
30
0
10
-14.160134427436811
20
5.2556357087815488
30
0
10
-14.236658931587787
20
5.3015869857105233
30
0
10
-14.304851485062095
20
5.3482908534404086
30
0
10
-14.373645475673641
20
5.4010669081568459
30
0
10
-14.451538107609146
20
5.4632950943566723
30
0
10
-14.542927498342069
20
5.5337705850818022
30
0
10
-14.642243874086997
20
5.6021864545399156
30
0
10
-14.734742737642637
20
5.6505598105819068
30
0
10
-14.804609652952923
20
5.6613266870253813
30
0
10
-14.840460163341969
20
5.6229591164339219
30
0
10
-14.843513357263742
20
5.5382985386149119
30
0
10
-14.825018666005077
20
5.4215647196114265
30
0
10
-14.799625560941061
20
5.291053492015493
30
0
10
-14.780534976802354
20
5.1637223456093881
30
0
10
-14.772748957527661
20
5.0477769281968374
30
0
10
-14.774145685645095
20
4.9434214092488364
30
0
10
-14.779387617211553
20
4.8465120397558294
30
0
10
-14.782668769172068
20
4.7511009345242581
30
0
10
-14.781508440037497
20
4.6528349106765132
30
0
10
-14.778237616362231
20
4.5506935917009903
30
0
10
-14.776799096677777
20
4.4455265147080727
30
0
10
-14.780591187703578
20
4.3392554415159159
30
0
10
-14.789688191491217
20
4.2337618331586366
30
0
10
-14.798927952632816
20
4.1300550174020616
30
0
10
-14.80074011943702
20
4.0285719810277048
30
0
10
-14.787531224624317
20
3.9293767636827903
30
0
10
-14.754177816938942
20
3.8323922266329196
30
0
10
-14.700636635332804
20
3.7376326342621127
30
0
10
-14.630697645403574
20
3.6450458920325532
30
0
10
-14.550463708898654
20
3.5543101435875197
30
0
10
-14.466986065759933
20
3.4646837519349534
30
0
10
-14.386702496054086
20
3.3747461958973908
30
0
10
-14.314425627339267
20
3.2824862633846923
30
0
10
-14.253202754768541
20
3.1859055606252622
30
0
10
-14.203923827062987
20
3.0835352355096148
30
0
10
-14.165136221885565
20
2.974914730527169
30
0
10
-14.13250545113311
20
2.8612706869710349
30
0
10
-14.099912694430659
20
2.7450784527907861
30
0
10
-14.061183841928962
20
2.6291687377355215
30
0
10
-14.011672447692769
20
2.5159553563626949
30
0
10
-13.94977605845822
20
2.4066708098105085
30
0
10
-13.878815298009275
20
2.3004456589954887
30
0
10
-13.805499294601804
20
2.194945963229165
30
0
10
-13.737850556583663
20
2.0872606186704483
30
0
10
-13.683244053721811
20
1.9747340832232354
30
0
10
-13.646569282640989
20
1.8557468118680698
30
0
10
-13.627897988534439
20
1.7307124175949327
30
0
10
-13.62346021751569
20
1.6016215183941442
30
0
10
-13.627509126982662
20
1.4711980822966177
30
0
10
-13.633955596536463
20
1.342150290444428
30
0
10
-13.637941604693131
20
1.2164637178180326
30
0
10
-13.637838541661347
20
1.0944692686285193
30
0
10
-13.634937536996883
20
0.97510997581927217
30
0
10
-13.632074129545211
20
0.85675455292650882
30
0
10
-13.632558048893472
20
0.73786320764040281
30
0
10
-13.639053234821921
20
0.61765584528404627
30
0
10
-13.652278649139792
20
0.49693285476579635
30
0
10
-13.671412811481769
20
0.37758340253574191
30
0
10
-13.694899003743849
20
0.26178806680072436
30
0
10
-13.721107350161752
20
0.15133295457974499
30
0
10
-13.74906742193874
20
0.046863260746993374
30
0
10
-13.779142160678719
20
-0.052799907718134483
30
0
10
-13.812540180603117
20
-0.14985465401969625
30
0
10
-13.850831530080125
20
-0.24671381611971333
30
0
10
-13.895502087373417
20
-0.34526388930304475
30
0
10
-13.947392333737515
20
-0.44593852739332041
30
0
10
-14.00678541296397
20
-0.54782974223802372
30
0
10
-14.073731362887223
20
-0.64917667914397847
30
0
10
-14.148294360032178
20
-0.74773066499955021
30
0
10
-14.230830964277153
20
-0.84117150842537702
30
0
10
-14.322258023363004
20
-0.9275028447484962
30
0
10
-14.42369427574836
20
-1.0050899206360584
30
0
10
-14.536102132707743
20
-1.0726904062183147
30
0
10
-14.659919114340216
20
-1.1294907070847955
30
0
10
-14.794717553498792
20
-1.1751338616471578
30
0
10
-14.938788872754609
20
-1.2097671903203564
30
0
10
-15.089437155346033
20
-1.2339083119065599
30
0
10
-15.243379987450137
20
-1.2482832668356547
30
0
10
-15.397110618663742
20
-1.2536757226486606
30
0
10
-15.547278435025344
20
-1.2507686778155305
30
0
10
-15.691056755861828
20
-1.2399960589758692
30
0
10
-15.826529377756584
20
-1.221372125732898
30
0
10
-15.952743867071792
20
-1.1947123955486747
30
0
10
-16.069736597526216
20
-1.1598706752834518
30
0
10
-16.178584880124383
20
-1.1169842834843693
30
0
10
-16.28140930833154
20
-1.0666838454261562
30
0
10
-16.381496964008406
20
-1.0104012080447955
30
0
10
-16.482638903361078
20
-0.95002172276756547
30
0
10
-16.588277897699811
20
-0.88737484101837927
30
0
10
-16.700702645503821
20
-0.82376931272115661
30
0
10
-16.820263113017159
20
-0.75953308785450746
30
0
10
-16.944468217070494
20
-0.6934886633677283
30
0
10
-17.069012932258268
20
-0.62353655044826006
30
0
10
-17.188933704746361
20
-0.54731232131611285
30
0
10
-17.29976767699646
20
-0.46284740703915034
30
0
10
-17.398596679158601
20
-0.36915953367880439
30
0
10
-17.485416327598415
20
-0.26704022591128035
30
0
10
-17.563414140849019
20
-0.15918180684588507
30
0
10
-17.637369686675175
20
-0.049168085930160241
30
0
10
-17.712472709559158
20
0.059282551846622025
30
0
10
-17.792990170684032
20
0.16316421593119895
30
0
10
-17.880958181738837
20
0.26101854978856925
30
0
10
-17.974976032802989
20
0.35369950498372571
30
0
10
-18.071417913086925
20
0.44350975028537798
30
0
10
-18.165507463186078
20
0.53343240112071599
30
0
10
-18.252470124191092
20
0.62630271490220479
30
0
10
-18.328593144961626
20
0.72406026410580637
30
0
10
-18.392481317890493
20
0.82682168975763948
30
0
10
-18.444755427988852
20
0.93340487391810711
30
0
10
-18.487474974184881
20
1.0421176554056206
30
0
10
-18.523656625177555
20
1.151441902458811
30
0
10
-18.556753068704946
20
1.2607902083109628
30
0
10
-18.590147902782466
20
1.3711510248338445
30
0
10
-18.626691397209171
20
1.4843015174622418
30
0
10
-18.668216775748117
20
1.6020757809086639
30
0
10
-18.715103734291638
20
1.7256511184590284
30
0
10
-18.765728142785505
20
1.8547359023921666
30
0
10
-18.816244657800592
20
1.9870742107924835
30
0
10
-18.861918638733151
20
2.1194375553279023
30
0
10
-18.898219513038697
20
2.2483962388359187
30
0
10
-18.922058312738727
20
2.3712067554842045
30
0
10
-18.932845267080062
20
2.4865799090059864
30
0
10
-18.933937069480898
20
2.5956838640759856
30
0
10
-18.931182495344
20
2.7014558874650096
30
0
10
-18.930775617644713
20
2.8075319995763466
30
0
10
-18.93751725697236
20
2.9173708098078062
30
0
10
-18.952508387016675
20
3.0331494473175429
30
0
10
-18.972436296830459
20
3.1552565218415261
30
0
10
-18.991589558726321
20
3.2828053113184201
30
0
10
-19.003315016436041
20
3.4139220791758818
30
0
10
-19.001598173272871
20
3.5461231310663583
30
0
10
-18.982831176923053
20
3.6766572666581259
30
0
10
-18.946688858147283
20
3.8028503714895692
30
0
10
-18.895169075619997
20
3.9223983485078469
30
0
10
-18.832040265827139
20
4.0336917544053481
30
0
10
-18.762112171919931
20
4.1360872738492782
30
0
10
-18.69061420212757
20
4.2302975721889418
30
0
10
-18.622432462639587
20
4.3184353067657026
30
0
10
-18.561080241045708
20
4.4029629862509054
30
0
10
-18.507625464014936
20
4.4857716704566197
30
0
10
-18.459811472839693
20
4.5673187293715118
30
0
10
-18.410638679273987
20
4.6454563315936603
30
0
10
-18.351196178789152
20
4.7168878796048661
30
0
10
-18.274434435302787
20
4.7792082113450638
30
0
10
-18.178466336246025
20
4.8326608402173363
30
0
10
-18.070450436799511
20
4.8822263210663035
30
0
10
-17.963111437172003
20
4.9356088119946655
30
0
10
-17.870526216138405
20
5.0008032389906143
30
0
10
-17.804499312831446
20
5.0840176063414795
30
0
10
-17.769920987040177
20
5.1869625938338952
30
0
10
-17.763189292834653
20
5.3060614024505792
30
0
10
-17.775841551469988
20
5.4349134063972615
30
0
10
-17.797117236593991
20
5.5661105194246314
30
0
10
-17.816736903157906
20
5.6931367218311006
30
0
10
-17.828117062674597
20
5.8126705762735611
30
0
10
-17.828921496707853
20
5.9246570573537669
30
0
10
-17.819879095528396
20
6.0309394065493986
30
0
10
-17.804123920883914
20
6.1343356474105146
30
0
10
-17.786334512607546
20
6.2375174596798155
30
0
10
-17.771920944899332
20
6.3420117837526586
30
0
10
-17.76563263700379
20
6.4484270884825357
30
0
10
-17.770065106851508
20
6.5566590010279491
30
0
10
-17.784474426991054
20
6.6660924667830121
30
0
10
-17.802782038180951
20
6.7758313541893846
30
0
10
-17.815943666703266
20
6.8847646217466654
30
0
10
-17.816314727727335
20
6.9915605104137599
30
0
10
-17.800930242227931
20
7.0946936138052505
30
0
10
-17.776251748398547
20
7.1924363071028266
30
0
10
-17.758913996954245
20
7.2829375536982885
30
0
10
-17.766785468536867
20
7.3644980374503399
30
0
10
-17.812858760305048
20
7.4357983245030868
30
0
10
-17.895971277752647
20
7.4961634089624143
30
0
10
-18.002311111875258
20
7.545742584342646
30
0
10
-18.113843089090949
20
7.5856845924322567
30
0
10
-18.214084075587632
20
7.6182463159413691
30
0
10
-18.2963223716988
20
7.6470842575139493
30
0
10
-18.366228776599598
20
7.6769374277794622
30
0
10
-18.434278407371973
20
7.712044801143664
30
0
10
-18.510703560013205
20
7.7549535852349392
30
0
10
-18.598591675484112
20
7.8048906781798983
30
0
10
-18.695261295683764
20
7.8588813938626831
30
0
10
-18.795118726759753
20
7.9134866549092395
30
0
10
-18.891836317477573
20
7.9661225942668263
30
0
10
-18.981243784525731
20
8.0170506470614971
30
0
10
-19.062048434783708
20
8.0688564027649683
30
0
10
-19.135091461110441
20
8.1238638578955964
30
0
10
-19.202975757598363
20
8.182549774653566
30
0
10
-19.26966105234068
20
8.240610796264173
30
0
10
-19.339565036513349
20
8.2905484422901949
30
0
10
-19.416137939021812
20
8.3269503124989139
30
0
10
-19.500634327448466
20
8.3505414610816917
30
0
10
-19.590695483411892
20
8.3732061112135021
30
0
10
-19.681368093580545
20
8.4123353372129639
30
0
10
-19.76626892049422
20
8.4845264052909091
30
0
10
-19.838684388671648
20
8.5996467155062302
30
0
10
-19.892731415216819
20
8.7543870704605915
30
0
10
-19.92359948160718
20
8.9357847381470084
30
0
10
-19.927757263738947
20
9.1252534024767442
30
0
10
-19.90316190665791
20
9.3023598935131133
30
0
10
-19.849489931476406
20
9.4488642215018555
30
0
10
-19.768305842171653
20
9.5522805370567898
30
0
10
-19.663394234116552
20
9.6105871306451078
30
0
10
-19.540155974902039
20
9.6304506824198697
30
0
10
-19.404707582528072
20
9.6233655683425177
30
0
10
-19.263057386208185
20
9.6023954374011282
30
0
10
-19.120298196057782
20
9.578862039950284
30
0
10
-18.979666148238529
20
9.5585384249178187
30
0
10
-18.842732195596362
20
9.5424420024095067
30
0
10
-18.709830409677551
20
9.5285915098940812
30
0
10
-18.580410466452758
20
9.5134767543386349
30
0
10
-18.453407955448995
20
9.4935423711199611
30
0
10
-18.327640882331309
20
9.4669235896578492
30
0
10
-18.202078665418341
20
9.4341896967931742
30
0
10
-18.075867840641436
20
9.3972628043288626
30
0
10
-17.948414129171113
20
9.3587382485761701
30
0
10
-17.819438670299
20
9.3210605920652974
30
0
10
-17.68905279065655
20
9.2857215142330389
30
0
10
-17.557803012238956
20
9.2525639305761374
30
0
10
-17.426475083577774
20
9.2203630663648859
30
0
10
-17.295921660338436
20
9.1872857509392816
30
0
10
-17.166873236308046
20
9.1514149092574453
30
0
10
-17.039773993889749
20
9.1112039902808313
30
0
10
-16.914561436970633
20
9.0660696791163371
30
0
10
-16.790736752238114
20
9.0162917859433662
30
0
10
-16.667544121239679
20
8.9626557752474323
30
0
10
-16.544118043061044
20
8.9061695735103328
30
0
10
-16.419636283363705
20
8.847770277005095
30
0
10
-16.293488969039004
20
8.7879849425080021
30
0
10
-16.165378881676105
20
8.7267791524365901
30
0
10
-16.035273467532704
20
8.6638144519138311
30
0
10
-15.903387297275074
20
8.598614425783385
30
0
10
-15.770154362935788
20
8.5307776665191408
30
0
10
-15.636200091886163
20
8.460146810701362
30
0
10
-15.502325063502306
20
8.3870561092334466
30
0
10
-15.369432745992002
20
8.3122842418090563
30
0
10
-15.238412222557127
20
8.2367862816719786
30
0
10
-15.110037191216321
20
8.161495785630958
30
0
10
-14.984851451103879
20
8.0870848972233098
30
0
10
-14.863075974762276
20
8.0137729097018315
30
0
10
-14.744466944901312
20
7.9410373346134566
30
0
10
-14.628382859640002
20
7.8677293671807984
30
0
10
-14.513977232261864
20
7.7924308441779253
30
0
10
-14.40035416683693
20
7.7137401209899963
30
0
10
-14.286737110744735
20
7.6305826600471462
30
0
10
-14.17263708470767
20
7.5425220686907766
30
0
10
-14.058006550887928
20
7.4500395065194347
30
0
10
-13.94311296299006
20
7.3542066205700944
30
0
10
-13.828428672430277
20
7.2563945173334137
30
0
10
-13.714512915484036
20
7.157963830456568
30
0
10
-13.601901081975178
20
7.0599747605804106
30
0
10
-13.490981522704024
20
6.9628600514299492
30
0
10
-13.381905608511635
20
6.8661989857899695
30
0
10
-13.274681209195943
20
6.7690506752343698
30
0
10
-13.169242141027457
20
6.6702142908787811
30
0
10
-13.06553054184355
20
6.5685280656502751
30
0
10
-12.963565427147703
20
6.4631277267883949
30
0
10
-12.863537358568525
20
6.3537807346041495
30
0
10
-12.765823115057405
20
6.2409892043399893
30
0
10
-12.670849504557749
20
6.1256595945319283
30
0
10
-12.578993204636708
20
6.0088727323723665
30
0
10
-12.490459658453698
20
5.8916015950578728
30
0
10
-12.405185908967049
20
5.7744791757355349
30
0
10
-12.322696247820828
20
5.6574765159070219
30
0
10
-12.242119122738234
20
5.5398802923154111
30
0
10
-12.162387424247367
20
5.420608901010592
30
0
10
-12.08238798889073
20
5.2984355212639205
30
0
10
-12.001138072032433
20
5.1722592755023964
30
0
10
-11.917935673179665
20
5.0413320587780515
30
0
10
-11.83255814726736
20
4.9055646485995812
30
0
10
-11.745247722334009
20
4.7654859693744589
30
0
10
-11.656593609616035
20
4.6220341509880294
30
0
10
-11.56744667778154
20
4.4764008650654077
30
0
10
-11.478820378931863
20
4.3298524368863713
30
0
10
-11.391798132503769
20
4.1835635066819723
30
0
10
-11.30743661784247
20
4.0384391519894676
30
0
10
-11.226674629917666
20
3.8949595659262126
30
0
10
-11.150296383463829
20
3.7532685000000576
30
0
10
-11.078890493907146
20
3.6132454660937268
30
0
10
-11.012812042088422
20
3.4745834420923853
30
0
10
-10.952140007318301
20
3.3368656793019138
30
0
10
-10.896644451953243
20
3.1996394985040801
30
0
10
-10.845729255618055
20
3.062500216934807
30
0
10
-10.798536785081973
20
2.9251046456027865
30
0
10
-10.754093718184253
20
2.7871665830853565
30
0
10
-10.711442626734847
20
2.6484584495224728
30
0
10
-10.669780095871754
20
2.50881032017864
30
0
10
-10.628590703833193
20
2.3681101445752026
30
0
10
-10.587786465987687
20
2.2263032792030737
30
0
10
-10.547616956709714
20
2.0834017004457572
30
0
10
-10.508575211717165
20
1.9394931311766648
30
0
10
-10.471304877309091
20
1.7947505753911437
30
0
10
-10.436507525360227
20
1.6494408500678892
30
0
10
-10.404848276095402
20
1.5039355281269779
30
0
10
-10.376866755800345
20
1.3587151229220611
30
0
10
-10.352959926703873
20
1.2142742194086504
30
0
10
-10.33336137053243
20
1.0710349079385908
30
0
10
-10.318120164659659
20
0.92925259370885627
30
0
10
-10.307083898965878
20
0.78893523432026424
30
0
10
-10.299870335614479
20
0.64973224268438923
30
0
10
-10.295874829037581
20
0.51091578231574009
30
0
10
-10.294373083194115
20
0.37160858807359703
30
0
10
-10.294604507863113
20
0.23095987305017701
30
0
10
-10.295866286339749
20
0.088353415914284389
30
0
10
-10.297595895054943
20
-0.05642486782383388
30
0
10
-10.299476315226903
20
-0.20293384984557461
30
0
10
-10.30143675709623
20
-0.35022572450039691
30
0
10
-10.303605473538969
20
-0.49718190779928179
30
0
10
-10.306277845999896
20
-0.64278490242471964
30
0
10
-10.30987793482111
20
-0.78642703459939511
30
0
10
-10.314923293574196
20
-0.92817938797008404
30
0
10
-10.321987174350596
20
-1.069141675650517
30
0
10
-10.331675706677865
20
-1.2110237529075958
30
0
10
-10.344606745913724
20
-1.355626325015113
30
0
10
-10.361388298088695
20
-1.5043527624598938
30
0
10
-10.382596785914966
20
-1.6577178826656254
30
0
10
-10.408756176757546
20
-1.8148341846851022
30
0
10
-10.440314493211162
20
-1.9729752419284809
30
0
10
-10.477574567338035
20
-2.128538233315755
30
0
10
-10.52062677823522
20
-2.277939114373956
30
0
10
-10.569281584351611
20
-2.4185289809378347
30
0
10
-10.623000883843298
20
-2.5495110639776177
30
0
10
-10.680832817085639
20
-2.6728348432127276
30
0
10
-10.741336885412894
20
-2.7941627366500645
30
0
10
-10.802846830707232
20
-2.9213061503891069
30
0
10
-10.86374899162845
20
-3.0625545137388208
30
0
10
-10.922747113196888
20
-3.2250847598454935
30
0
10
-10.979150671549597
20
-3.4132437922636623
30
0
10
-11.033111633340202
20
-3.6271023668161244
30
0
10
-11.085987671503766
20
-3.860346915518083
30
0
10
-11.14016492641117
20
-4.1009980625705849
30
0
10
-11.198541124058805
20
-4.3339053074960958
30
0
10
-11.264111100088972
20
-4.5427060018312542
30
0
10
-11.33950999718094
20
-4.7120061071672872
30
0
10
-11.409161700272563
20
-4.8059731069547755
30
0
10
-11.466916431052949
20
-4.8498981838625994
30
0
10
-11.507724989454982
20
-4.8673984278632698
30
0
10
-11.528669580023161
20
-4.8732833293254627
30
0
0
SPLINE
5
102
100
AcDbEntity
8
0
100
AcDbSpline
70
4
71
5
72
316
73
310
74
0
42
0.000000001
43
0.0000000001
44
0.0000000001
40
-1
40
-1
40
-1
40
-1
40
-1
40
-1
40
-0.99672131147540433
40
-0.9934426229508142
40
-0.99016393442622408
40
-0.98688524590163396
40
-0.98360655737704383
40
-0.98032786885245371
40
-0.97704918032786359
40
-0.97377049180327346
40
-0.97049180327868334
40
-0.96721311475409322
40
-0.96393442622950309
40
-0.96065573770491297
40
-0.95737704918032285
40
-0.95409836065573272
40
-0.9508196721311426
40
-0.94754098360655248
40
-0.94426229508196236
40
-0.94098360655737223
40
-0.93770491803278211
40
-0.93442622950819199
40
-0.93114754098360186
40
-0.92786885245901174
40
-0.92459016393442162
40
-0.92131147540983149
40
-0.91803278688524137
40
-0.91475409836065125
40
-0.91147540983606112
40
-0.908196721311471
40
-0.90491803278688088
40
-0.90163934426229075
40
-0.89836065573770063
40
-0.89508196721311051
40
-0.89180327868852038
40
-0.88852459016393026
40
-0.88524590163934014
40
-0.88196721311475001
40
-0.87868852459015989
40
-0.87540983606556977
40
-0.87213114754097965
40
-0.86885245901638952
40
-0.8655737704917994
40
-0.86229508196720928
40
-0.85901639344261915
40
-0.85573770491802903
40
-0.85245901639343891
40
-0.84918032786884878
40
-0.84590163934425866
40
-0.84262295081966854
40
-0.83934426229507841
40
-0.83606557377048829
40
-0.83278688524589817
40
-0.82950819672130804
40
-0.82622950819671792
40
-0.8229508196721278
40
-0.81967213114753767
40
-0.81639344262294755
40
-0.81311475409835743
40
-0.80983606557376731
40
-0.80655737704917718
40
-0.80327868852458706
40
-0.79999999999999694
40
-0.79672131147540681
40
-0.79344262295081669
40
-0.79016393442622657
40
-0.78688524590163644
40
-0.78360655737704632
40
-0.7803278688524562
40
-0.77704918032786607
40
-0.77377049180327595
40
-0.77049180327868583
40
-0.7672131147540957
40
-0.76393442622950558
40
-0.76065573770491546
40
-0.75737704918032533
40
-0.75409836065573521
40
-0.75081967213114509
40
-0.74754098360655497
40
-0.74426229508196484
40
-0.74098360655737472
40
-0.7377049180327846
40
-0.73442622950819447
40
-0.73114754098360435
40
-0.72786885245901423
40
-0.7245901639344241
40
-0.72131147540983398
40
-0.71803278688524386
40
-0.71475409836065373
40
-0.71147540983606361
40
-0.70819672131147349
40
-0.70491803278688336
40
-0.70163934426229324
40
-0.69836065573770312
40
-0.69508196721311299
40
-0.69180327868852287
40
-0.68852459016393275
40
-0.68524590163934262
40
-0.6819672131147525
40
-0.67868852459016238
40
-0.67540983606557226
40
-0.67213114754098213
40
-0.66885245901639201
40
-0.66557377049180189
40
-0.66229508196721176
40
-0.65901639344262164
40
-0.65573770491803152
40
-0.65245901639344139
40
-0.64918032786885127
40
-0.64590163934426115
40
-0.64262295081967102
40
-0.6393442622950809
40
-0.63606557377049078
40
-0.63278688524590065
40
-0.62950819672131053
40
-0.62622950819672041
40
-0.62295081967213028
40
-0.61967213114754016
40
-0.61639344262295004
40
-0.61311475409835992
40
-0.60983606557376979
40
-0.60655737704917967
40
-0.60327868852458955
40
-0.59999999999999942
40
-0.5967213114754093
40
-0.59344262295081918
40
-0.59016393442622905
40
-0.58688524590163893
40
-0.58360655737704881
40
-0.58032786885245868
40
-0.57704918032786856
40
-0.57377049180327844
40
-0.57049180327868831
40
-0.56721311475409819
40
-0.56393442622950807
40
-0.56065573770491794
40
-0.55737704918032782
40
-0.5540983606557377
40
-0.55081967213114758
40
-0.54754098360655745
40
-0.54426229508196733
40
-0.54098360655737721
40
-0.53770491803278708
40
-0.53442622950819696
40
-0.53114754098360684
40
-0.52786885245901671
40
-0.52459016393442659
40
-0.52131147540983647
40
-0.51803278688524634
40
-0.51475409836065622
40
-0.5114754098360661
40
-0.50819672131147597
40
-0.50491803278688585
40
-0.50163934426229573
40
-0.49836065573770555
40
-0.49508196721311537
40
-0.49180327868852519
40
-0.48852459016393501
40
-0.48524590163934483
40
-0.48196721311475466
40
-0.47868852459016448
40
-0.4754098360655743
40
-0.47213114754098412
40
-0.46885245901639394
40
-0.46557377049180376
40
-0.46229508196721358
40
-0.4590163934426234
40
-0.45573770491803323
40
-0.45245901639344305
40
-0.44918032786885287
40
-0.44590163934426269
40
-0.44262295081967251
40
-0.43934426229508233
40
-0.43606557377049215
40
-0.43278688524590198
40
-0.4295081967213118
40
-0.42622950819672162
40
-0.42295081967213144
40
-0.41967213114754126
40
-0.41639344262295108
40
-0.4131147540983609
40
-0.40983606557377072
40
-0.40655737704918055
40
-0.40327868852459037
40
-0.40000000000000019
40
-0.39672131147541001
40
-0.39344262295081983
40
-0.39016393442622965
40
-0.38688524590163947
40
-0.3836065573770493
40
-0.38032786885245912
40
-0.37704918032786894
40
-0.37377049180327876
40
-0.37049180327868858
40
-0.3672131147540984
40
-0.36393442622950822
40
-0.36065573770491804
40
-0.35737704918032787
40
-0.35409836065573769
40
-0.35081967213114751
40
-0.34754098360655733
40
-0.34426229508196715
40
-0.34098360655737697
40
-0.33770491803278679
40
-0.33442622950819662
40
-0.33114754098360644
40
-0.32786885245901626
40
-0.32459016393442608
40
-0.3213114754098359
40
-0.31803278688524572
40
-0.31475409836065554
40
-0.31147540983606536
40
-0.30819672131147519
40
-0.30491803278688501
40
-0.30163934426229483
40
-0.29836065573770465
40
-0.29508196721311447
40
-0.29180327868852429
40
-0.28852459016393411
40
-0.28524590163934394
40
-0.28196721311475376
40
-0.27868852459016358
40
-0.2754098360655734
40
-0.27213114754098322
40
-0.26885245901639304
40
-0.26557377049180286
40
-0.26229508196721268
40
-0.25901639344262251
40
-0.25573770491803233
40
-0.25245901639344215
40
-0.249180327868852
40
-0.24590163934426185
40
-0.2426229508196717
40
-0.23934426229508154
40
-0.23606557377049139
40
-0.23278688524590124
40
-0.22950819672131109
40
-0.22622950819672094
40
-0.22295081967213079
40
-0.21967213114754064
40
-0.21639344262295049
40
-0.21311475409836034
40
-0.20983606557377019
40
-0.20655737704918004
40
-0.20327868852458988
40
-0.19999999999999973
40
-0.19672131147540958
40
-0.19344262295081943
40
-0.19016393442622928
40
-0.18688524590163913
40
-0.18360655737704898
40
-0.18032786885245883
40
-0.17704918032786868
40
-0.17377049180327853
40
-0.17049180327868838
40
-0.16721311475409822
40
-0.16393442622950807
40
-0.16065573770491792
40
-0.15737704918032777
40
-0.15409836065573762
40
-0.15081967213114747
40
-0.14754098360655732
40
-0.14426229508196717
40
-0.14098360655737702
40
-0.13770491803278687
40
-0.13442622950819672
40
-0.13114754098360656
40
-0.12786885245901641
40
-0.12459016393442625
40
-0.12131147540983608
40
-0.11803278688524592
40
-0.11475409836065575
40
-0.11147540983606559
40
-0.10819672131147542
40
-0.10491803278688526
40
-0.10163934426229509
40
-0.09836065573770493
40
-0.095081967213114765
40
-0.0918032786885246
40
-0.088524590163934436
40
-0.085245901639344271
40
-0.081967213114754106
40
-0.078688524590163941
40
-0.075409836065573776
40
-0.072131147540983612
40
-0.068852459016393447
40
-0.065573770491803282
40
-0.062295081967213124
40
-0.059016393442622959
40
-0.055737704918032795
40
-0.05245901639344263
40
-0.049180327868852465
40
-0.0459016393442623
40
-0.042622950819672135
40
-0.039344262295081971
40
-0.036065573770491806
40
-0.032786885245901641
40
-0.02950819672131148
40
-0.026229508196721315
40
-0.02295081967213115
40
-0.019672131147540985
40
-0.016393442622950821
40
-0.013114754098360656
40
-0.0098360655737704909
40
-0.0065573770491803279
40
-0.0032786885245901639
40
0
40
0
40
0
40
0
40
0
40
0
41
1
41
1
41
1
41
1
41
1
41
1
41
1
41
1
41
1
41
1
41
1
41
1
41
1
41
1
41
1
41
1
41
1
41
1
41
1
41
1
41
1
41
1
41
1
41
1
41
1
41
1
41
1
41
1
41
1
41
1
41
1
41
1
41
1
41
1
41
1
41
1
41
1
41
1
41
1
41
1
41
1
41
1
41
1
41
1
41
1
41
1
41
1
41
1
41
1
41
1
41
1
41
1
41
1
41
1
41
1
41
1
41
1
41
1
41
1
41
1
41
1
41
1
41
1
41
1
41
1
41
1
41
1
41
1
41
1
41
1
41
1
41
1
41
1
41
1
41
1
41
1
41
1
41
1
41
1
41
1
41
1
41
1
41
1
41
1
41
1
41
1
41
1
41
1
41
1
41
1
41
1
41
1
41
1
41
1
41
1
41
1
41
1
41
1
41
1
41
1
41
1
41
1
41
1
41
1
41
1
41
1
41
1
41
1
41
1
41
1
41
1
41
1
41
1
41
1
41
1
41
1
41
1
41
1
41
1
41
1
41
1
41
1
41
1
41
1
41
1
41
1
41
1
41
1
41
1
41
1
41
1
41
1
41
1
41
1
41
1
41
1
41
1
41
1
41
1
41
1
41
1
41
1
41
1
41
1
41
1
41
1
41
1
41
1
41
1
41
1
41
1
41
1
41
1
41
1
41
1
41
1
41
1
41
1
41
1
41
1
41
1
41
1
41
1
41
1
41
1
41
1
41
1
41
1
41
1
41
1
41
1
41
1
41
1
41
1
41
1
41
1
41
1
41
1
41
1
41
1
41
1
41
1
41
1
41
1
41
1
41
1
41
1
41
1
41
1
41
1
41
1
41
1
41
1
41
1
41
1
41
1
41
1
41
1
41
1
41
1
41
1
41
1
41
1
41
1
41
1
41
1
41
1
41
1
41
1
41
1
41
1
41
1
41
1
41
1
41
1
41
1
41
1
41
1
41
1
41
1
41
1
41
1
41
1
41
1
41
1
41
1
41
1
41
1
41
1
41
1
41
1
41
1
41
1
41
1
41
1
41
1
41
1
41
1
41
1
41
1
41
1
41
1
41
1
41
1
41
1
41
1
41
1
41
1
41
1
41
1
41
1
41
1
41
1
41
1
41
1
41
1
41
1
41
1
41
1
41
1
41
1
41
1
41
1
41
1
41
1
41
1
41
1
41
1
41
1
41
1
41
1
41
1
41
1
41
1
41
1
41
1
41
1
41
1
41
1
41
1
41
1
41
1
41
1
41
1
41
1
41
1
41
1
41
1
41
1
41
1
41
1
41
1
41
1
41
1
41
1
41
1
41
1
41
1
41
1
41
1
41
1
41
1
41
1
41
1
41
1
41
1
41
1
41
1
41
1
41
1
10
-20.500000305473804
20
8.5000001266598701
30
0
10
-20.515500663895775
20
8.4932800552330345
30
0
10
-20.546862634415348
20
8.479539119671994
30
0
10
-20.594989385005977
20
8.4580253606158031
30
0
10
-20.66132572041354
20
8.4275354112432339
30
0
10
-20.747789173100223
20
8.3864107962902708
30
0
10
-20.837582242431665
20
8.3422588486212774
30
0
10
-20.930287491610802
20
8.2950559201980187
30
0
10
-21.025185884359487
20
8.2447476185609663
30
0
10
-21.121333966906093
20
8.1913394940681421
30
0
10
-21.217725203151794
20
8.1350350333552193
30
0
10
-21.313429824103679
20
8.0763737223966086
30
0
10
-21.407732653168754
20
8.0163359212870002
30
0
10
-21.500299686323515
20
7.9565463584438252
30
0
10
-21.591167623525408
20
7.898941468960925
30
0
10
-21.68066394978667
20
7.8452404486778065
30
0
10
-21.769350512659777
20
7.7964653778806037
30
0
10
-21.857955618605502
20
7.7524744947715796
30
0
10
-21.947315747460031
20
7.7113996749720446
30
0
10
-22.03823979292277
20
7.6703485243404623
30
0
10
-22.131357530227564
20
7.6262831198316139
30
0
10
-22.226988279094982
20
7.5767828587929111
30
0
10
-22.324966956775967
20
7.5209790709481483
30
0
10
-22.424595458749181
20
7.4600297365616433
30
0
10
-22.524968348309354
20
7.3962433599943527
30
0
10
-22.62523499268098
20
7.3324351158447136
30
0
10
-22.724882850072262
20
7.271197771445026
30
0
10
-22.824020894418354
20
7.2141943096328145
30
0
10
-22.923636984869287
20
7.1614825686005457
30
0
10
-23.025102011684282
20
7.111995886492525
30
0
10
-23.129712634674775
20
7.0639722750637981
30
0
10
-23.238202581978086
20
7.0154102768116413
30
0
10
-23.350306064628906
20
6.9644968495157915
30
0
10
-23.464196216650937
20
6.9100913530021382
30
0
10
-23.577113871673063
20
6.8516852497284022
30
0
10
-23.686140867935531
20
6.7892896097384314
30
0
10
-23.788960192087004
20
6.7233484074476415
30
0
10
-23.884536345919759
20
6.6546403193212882
30
0
10
-23.974036506013068
20
6.5841871147280706
30
0
10
-24.060946738982743
20
6.5131537879774681
30
0
10
-24.149706810904053
20
6.4427389594906392
30
0
10
-24.244651636628028
20
6.3740660218366045
30
0
10
-24.348871971151816
20
6.3080765922385549
30
0
10
-24.46301010695943
20
6.2454168582116329
30
0
10
-24.584377717752467
20
6.1863448314542158
30
0
10
-24.708345200160025
20
6.1307668260446135
30
0
10
-24.82945056408008
20
6.0782629588179917
30
0
10
-24.94267211649553
20
6.0281102112227538
30
0
10
-25.044504277673521
20
5.979321699911841
30
0
10
-25.134428664392345
20
5.9306418706378148
30
0
10
-25.215092446335756
20
5.8806943505708666
30
0
10
-25.290714086706068
20
5.828338384338041
30
0
10
-25.365910375403715
20
5.7729797785890122
30
0
10
-25.444380179776729
20
5.7148879955532186
30
0
10
-25.527575943045235
20
5.655544344928547
30
0
10
-25.615346535680775
20
5.5970293139266927
30
0
10
-25.706719389226805
20
5.5413348341234849
30
0
10
-25.800589384626441
20
5.4897490806012614
30
0
10
-25.896544012954017
20
5.4421054576345469
30
0
10
-25.995329828822754
20
5.3964157091341978
30
0
10
-26.098141284544162
20
5.3497841526941494
30
0
10
-26.20609569633341
20
5.299118275766471
30
0
10
-26.319648356778718
20
5.241905988314973
30
0
10
-26.438002240039864
20
5.1769955566287882
30
0
10
-26.558608455745215
20
5.1052855985233716
30
0
10
-26.678064786926441
20
5.0290239866925104
30
0
10
-26.792914564522881
20
4.9512015602997543
30
0
10
-26.900500840898083
20
4.8749016837551311
30
0
10
-26.99975751440261
20
4.8026870989193204
30
0
10
-27.092121830477957
20
4.7359266987319559
30
0
10
-27.182119100520122
20
4.6742768118870828
30
0
10
-27.275368763118696
20
4.6163586234369198
30
0
10
-27.376856338289016
20
4.5603161606225369
30
0
10
-27.489061006445819
20
4.504432151440815
30
0
10
-27.610242497629262
20
4.4476911930661336
30
0
10
-27.732396250150913
20
4.3904407154053606
30
0
10
-27.844142039620877
20
4.3336608099025336
30
0
10
-27.933911341077643
20
4.2781586744580613
30
0
10
-27.993148366714841
20
4.2237403598291996
30
0
10
-28.019228646925804
20
4.1685055397215152
30
0
10
-28.019222931806471
20
4.1077950249596782
30
0
10
-28.005556510663702
20
4.0362836926945755
30
0
10
-27.991092449500865
20
3.9501715925924143
30
0
10
-27.983379180640085
20
3.8499944526977932
30
0
10
-27.983859310593687
20
3.7402803867083438
30
0
10
-27.990459850151662
20
3.6271245800733469
30
0
10
-27.999203304622359
20
3.516326343393545
30
0
10
-28.006129633230024
20
3.4114368082413598
30
0
10
-28.009330199329028
20
3.3114706070917017
30
0
10
-28.008672147471756
20
3.2122193459044084
30
0
10
-28.005042307593367
20
3.1082771609167987
30
0
10
-27.999769125964246
20
2.9947891773092188
30
0
10
-27.993951137985569
20
2.8693798796575241
30
0
10
-27.98787830912481
20
2.7338241953053153
30
0
10
-27.981386110162262
20
2.5925175776240446
30
0
10
-27.974156006624234
20
2.4511359260191274
30
0
10
-27.966046709863871
20
2.315194827047224
30
0
10
-27.957387808474863
20
2.1887184781966957
30
0
10
-27.949348046942816
20
2.0727021501985918
30
0
10
-27.944100441500165
20
1.9641307725345156
30
0
10
-27.943761722458863
20
1.8583976087453957
30
0
10
-27.949432532770739
20
1.7514104226337879
30
0
10
-27.960268510007502
20
1.6416920105748731
30
0
10
-27.972374484502605
20
1.5327788279638668
30
0
10
-27.978269297983825
20
1.4345988491299269
30
0
10
-27.969721861535813
20
1.3587865899054807
30
0
10
-27.94000916336859
20
1.3150226648328989
30
0
10
-27.886736831969159
20
1.3064016284292348
30
0
10
-27.813386725128055
20
1.3269728968065218
30
0
10
-27.726480845948092
20
1.3668474346798214
30
0
10
-27.633540484844747
20
1.4158406197510345
30
0
10
-27.540493984717145
20
1.4683190184733848
30
0
10
-27.451222458933181
20
1.5224491007789314
30
0
10
-27.367476917417402
20
1.5783007839535388
30
0
10
-27.28872149797969
20
1.63639818175829
30
0
10
-27.211894021458932
20
1.6959432342412286
30
0
10
-27.131525645974808
20
1.7535849857499337
30
0
10
-27.042106243734683
20
1.8051840057918263
30
0
10
-26.940398185578204
20
1.8473733594467621
30
0
10
-26.827381865911097
20
1.878982402521991
30
0
10
-26.711292214506042
20
1.9030357867122039
30
0
10
-26.606720594971989
20
1.9265907443381247
30
0
10
-26.528502379790567
20
1.9577076555581987
30
0
10
-26.487134894124544
20
2.0032374683168048
30
0
10
-26.483097387333586
20
2.0660720139501634
30
0
10
-26.503060104607385
20
2.1432345967187039
30
0
10
-26.528072813786189
20
2.2290550593115204
30
0
10
-26.539773106465443
20
2.3175380006947419
30
0
10
-26.528900736856542
20
2.4056322501951919
30
0
10
-26.496669711759129
20
2.4937569920886178
30
0
10
-26.449767333990049
20
2.5838843158324289
30
0
10
-26.397219303364771
20
2.6783454587681033
30
0
10
-26.346238379033014
20
2.7782244099235864
30
0
10
-26.299255925165376
20
2.882272304138898
30
0
10
-26.255594438448991
20
2.9879607899387266
30
0
10
-26.212622948178542
20
3.0922989647323602
30
0
10
-26.167086124970101
20
3.1927194774876249
30
0
10
-26.116415069054529
20
3.2879850576210767
30
0
10
-26.059885763070405
20
3.3789429261703186
30
0
10
-25.997982044648197
20
3.4676890542647607
30
0
10
-25.931904871520288
20
3.5568550629860072
30
0
10
-25.863038963196448
20
3.648869469502837
30
0
10
-25.792406175131429
20
3.7451802664138372
30
0
10
-25.720217320002607
20
3.8456404297624784
30
0
10
-25.646119810583215
20
3.9489887254418718
30
0
10
-25.569363653039211
20
4.0532025845472468
30
0
10
-25.489004604181048
20
4.1559100577853503
30
0
10
-25.404078590234764
20
4.2547542614169958
30
0
10
-25.313820483452659
20
4.3478336205781147
30
0
10
-25.217730187707794
20
4.4338789005490042
30
0
10
-25.115512020737988
20
4.5122140414061311
30
0
10
-25.007050479115019
20
4.5827750570223182
30
0
10
-24.892369583110504
20
4.6461114228545757
30
0
10
-24.771602788562923
20
4.7033804131866672
30
0
10
-24.64494911125292
20
4.756382862747512
30
0
10
-24.512713847228021
20
4.8072554918947565
30
0
10
-24.37536800902808
20
4.8580833638881762
30
0
10
-24.233598742760805
20
4.9105498768792231
30
0
10
-24.088369414536153
20
4.9655487381509449
30
0
10
-23.940961929750312
20
5.0228638554632159
30
0
10
-23.793060005324406
20
5.0806938583380408
30
0
10
-23.646696734969158
20
5.1356907436110486
30
0
10
-23.503995338757843
20
5.1837819145976116
30
0
10
-23.366959993492596
20
5.2208023780351018
30
0
10
-23.237244272668384
20
5.2432120478443967
30
0
10
-23.115934144412517
20
5.2487571011873495
30
0
10
-23.003312783785361
20
5.2372019344206402
30
0
10
-22.89866725916562
20
5.2108990053177004
30
0
10
-22.800570650897036
20
5.1736212806285593
30
0
10
-22.707131551955626
20
5.1294751479175513
30
0
10
-22.616255992156894
20
5.0818601810221544
30
0
10
-22.525903894648977
20
5.0322268989075667
30
0
10
-22.43434741755495
20
4.9795014592816909
30
0
10
-22.340411045621384
20
4.9213025634911354
30
0
10
-22.243731472744983
20
4.8548539199708109
30
0
10
-22.144975774267689
20
4.7779564367632972
30
0
10
-22.046157922444781
20
4.6900791891043019
30
0
10
-21.950656480375677
20
4.5929408408659622
30
0
10
-21.862347974096402
20
4.4895245201119236
30
0
10
-21.784922571951721
20
4.3833947166800939
30
0
10
-21.721078104112156
20
4.2778561984802792
30
0
10
-21.671880149763073
20
4.1752690695508043
30
0
10
-21.635766829339179
20
4.0760761233968834
30
0
10
-21.608905002660066
20
3.9788867352695738
30
0
10
-21.586604015840276
20
3.881388161061305
30
0
10
-21.564465875823011
20
3.7810406118498383
30
0
10
-21.539558100872433
20
3.6758168974884553
30
0
10
-21.511799539115096
20
3.5650380494226033
30
0
10
-21.483327363607799
20
3.449167937974349
30
0
10
-21.457467975152291
20
3.3293958126809144
30
0
10
-21.437807480896439
20
3.2072804143336557
30
0
10
-21.427306848739711
20
3.0843964255376459
30
0
10
-21.427184001253615
20
2.9619102112008444
30
0
10
-21.436780494700436
20
2.8404742837551811
30
0
10
-21.45429201546612
20
2.7204043308555734
30
0
10
-21.477260587839911
20
2.6017781888753042
30
0
10
-21.503152635886561
20
2.4845628792050074
30
0
10
-21.529928295879387
20
2.3687389641938625
30
0
10
-21.556532385981619
20
2.2543985465022605
30
0
10
-21.582674164927123
20
2.1415998578035205
30
0
10
-21.60868101078475
20
2.0302500074404186
30
0
10
-21.635323789843937
20
1.9199710051602656
30
0
10
-21.663653888064054
20
1.8099863801165847
30
0
10
-21.694836232705001
20
1.6989630814502892
30
0
10
-21.729981829308727
20
1.585444604157076
30
0
10
-21.76998585214875
20
1.4683116968079326
30
0
10
-21.815350987712534
20
1.3472725256701783
30
0
10
-21.866045951218215
20
1.2232513867225108
30
0
10
-21.921277610653629
20
1.099040068688236
30
0
10
-21.979577744377174
20
0.97898347418488751
30
0
10
-22.039220545541561
20
0.86764900940213929
30
0
10
-22.098552006290468
20
0.76876564237522738
30
0
10
-22.156354652067407
20
0.6840571923441624
30
0
10
-22.212198578437548
20
0.61211077116065793
30
0
10
-22.266794713476635
20
0.54725513596880171
30
0
10
-22.321610638789352
20
0.4818094507017463
30
0
10
-22.378483860268652
20
0.40839950286046856
30
0
10
-22.43924974828002
20
0.32207950931466467
30
0
10
-22.505328154246818
20
0.22296800582294807
30
0
10
-22.577614474680459
20
0.11519227048416888
30
0
10
-22.656442738761804
20
0.005026264303570371
30
0
10
-22.741517148654651
20
-0.10073017371918364
30
0
10
-22.831871996898194
20
-0.19639320880153857
30
0
10
-22.925783154434619
20
-0.27921885566310256
30
0
10
-23.020810378830735
20
-0.35056755203115292
30
0
10
-23.114379579215477
20
-0.41418890639840478
30
0
10
-23.204290669574096
20
-0.474918947931252
30
0
10
-23.289247613122242
20
-0.53722886545644044
30
0
10
-23.369394964894944
20
-0.60380805875804555
30
0
10
-23.446807725723531
20
-0.67421287681092246
30
0
10
-23.524659060317354
20
-0.74600441564718167
30
0
10
-23.606412623684214
20
-0.81582460487407338
30
0
10
-23.695045941570111
20
-0.88044367737033769
30
0
10
-23.792166306958187
20
-0.93794136535378114
30
0
10
-23.897462640095362
20
-0.98845682784006639
30
0
10
-24.00944407368446
20
-1.0332772189014736
30
0
10
-24.125973560018505
20
-1.074191761538448
30
0
10
-24.244893593166239
20
-1.1127252260745919
30
0
10
-24.364585101878276
20
-1.1494613619442198
30
0
10
-24.484628536240741
20
-1.1832249125788454
30
0
10
-24.60540606149296
20
-1.211738197476306
30
0
10
-24.727609617820036
20
-1.2324058034230516
30
0
10
-24.85175702154574
20
-1.2430953524732629
30
0
10
-24.977762101833591
20
-1.242825922151533
30
0
10
-25.104342507903649
20
-1.2327239096713369
30
0
10
-25.228973994337743
20
-1.2160835410767605
30
0
10
-25.348814795965101
20
-1.1968400115274602
30
0
10
-25.46142063176476
20
-1.1783846172861303
30
0
10
-25.565526957547089
20
-1.1622712716303496
30
0
10
-25.661841819671555
20
-1.1469023369893168
30
0
10
-25.75372776664862
20
-1.1264051149822973
30
0
10
-25.845523884514236
20
-1.0935779019259468
30
0
10
-25.940835363546853
20
-1.0428820638409289
30
0
10
-26.041085811644141
20
-0.97300510979434218
30
0
10
-26.143361174769236
20
-0.8905871528846504
30
0
10
-26.240668143918803
20
-0.80996942104262271
30
0
10
-26.3254700075993
20
-0.7474641925932255
30
0
10
-26.39270680766068
20
-0.71659371493249246
30
0
10
-26.442424587571924
20
-0.72370871572130668
30
0
10
-26.484070282224309
20
-0.76151329199936169
30
0
10
-26.532226850670789
20
-0.81369958719308522
30
0
10
-26.599534896190878
20
-0.86351232094975627
30
0
10
-26.688752967471117
20
-0.90287088742841171
30
0
10
-26.792671900077941
20
-0.93352582116190552
30
0
10
-26.900073664612123
20
-0.96191355172610415
30
0
10
-26.999912843913428
20
-0.99588212961133071
30
0
10
-27.086157368214103
20
-1.0406989369952608
30
0
10
-27.162555945104863
20
-1.0952129248494753
30
0
10
-27.238649468205654
20
-1.1542259151273617
30
0
10
-27.325218283651754
20
-1.2112585373705027
30
0
10
-27.430321622971295
20
-1.2609494900256886
30
0
10
-27.55418474814887
20
-1.3021251845943076
30
0
10
-27.687671381319298
20
-1.3388158989953192
30
0
10
-27.817036730365899
20
-1.3776869125923601
30
0
10
-27.927251860176739
20
-1.4262836347772845
30
0
10
-28.005947535951275
20
-1.4909259657391547
30
0
10
-28.046986127138467
20
-1.5748086446823453
30
0
10
-28.054487157385996
20
-1.6758594571605649
30
0
10
-28.039314988177274
20
-1.7885354820234323
30
0
10
-28.015087015478418
20
-1.9058671427027125
30
0
10
-27.994511748099068
20
-2.0213341352120171
30
0
10
-27.985224458537346
20
-2.1309947018932158
30
0
10
-27.986919876838279
20
-2.2349629235660227
30
0
10
-27.994651850109683
20
-2.3357827107753311
30
0
10
-28.001445144337648
20
-2.4371519239069612
30
0
10
-28.000945332066806
20
-2.5426174738145519
30
0
10
-27.990599975175297
20
-2.6540272072949715
30
0
10
-27.972658685365364
20
-2.7709979724994138
30
0
10
-27.951891464776672
20
-2.8919171973338695
30
0
10
-27.934082549152674
20
-3.0145811536909903
30
0
10
-27.924251750606444
20
-3.1369625700497776
30
0
10
-27.92489579889277
20
-3.2579641831966777
30
0
10
-27.93450161511025
20
-3.3780583712428145
30
0
10
-27.949167025890741
20
-3.498595404470215
30
0
10
-27.963919050858213
20
-3.6212423396841507
30
0
10
-27.974209173922688
20
-3.7473441689526448
30
0
10
-27.977193522762924
20
-3.8773813127920391
30
0
10
-27.973456499032206
20
-4.0102268173429163
30
0
10
-27.966894432446164
20
-4.1432362014836528
30
0
10
-27.963475214199526
20
-4.2728461125332613
30
0
10
-27.97033640687841
20
-4.3950198235583322
30
0
10
-27.994746568606299
20
-4.5057544774723075
30
0
10
-28.043118120180086
20
-4.6015654348904365
30
0
10
-28.120017922158155
20
-4.6799704869812109
30
0
10
-28.228492869232745
20
-4.7393138510523718
30
0
10
-28.370368004128839
20
-4.7786037386960176
30
0
10
-28.511317664640487
20
-4.7935965715163578
30
0
10
-28.632606392987103
20
-4.7955202892338136
30
0
10
-28.720388318013459
20
-4.7926602086984511
30
0
10
-28.766009972997605
20
-4.7901945290358157
30
0
0
SPLINE
5
103
100
AcDbEntity
8
0
100
AcDbSpline
70
4
71
5
72
111
73
105
74
0
42
0.000000001
43
0.0000000001
44
0.0000000001
40
-1
40
-1
40
-1
40
-1
40
-1
40
-1
40
-0.99000000000000066
40
-0.98000000000000065
40
-0.97000000000000064
40
-0.96000000000000063
40
-0.95000000000000062
40
-0.94000000000000061
40
-0.9300000000000006
40
-0.9200000000000006
40
-0.91000000000000059
40
-0.90000000000000058
40
-0.89000000000000057
40
-0.88000000000000056
40
-0.87000000000000055
40
-0.86000000000000054
40
-0.85000000000000053
40
-0.84000000000000052
40
-0.83000000000000052
40
-0.82000000000000051
40
-0.8100000000000005
40
-0.80000000000000049
40
-0.79000000000000048
40
-0.78000000000000047
40
-0.77000000000000046
40
-0.76000000000000045
40
-0.75000000000000044
40
-0.74000000000000044
40
-0.73000000000000043
40
-0.72000000000000042
40
-0.71000000000000041
40
-0.7000000000000004
40
-0.69000000000000039
40
-0.68000000000000038
40
-0.67000000000000037
40
-0.66000000000000036
40
-0.65000000000000036
40
-0.64000000000000035
40
-0.63000000000000034
40
-0.62000000000000033
40
-0.61000000000000032
40
-0.60000000000000031
40
-0.5900000000000003
40
-0.58000000000000029
40
-0.57000000000000028
40
-0.56000000000000028
40
-0.55000000000000027
40
-0.54000000000000026
40
-0.53000000000000025
40
-0.52000000000000024
40
-0.51000000000000023
40
-0.50000000000000022
40
-0.49000000000000027
40
-0.48000000000000026
40
-0.47000000000000025
40
-0.46000000000000024
40
-0.45000000000000023
40
-0.44000000000000022
40
-0.43000000000000022
40
-0.42000000000000021
40
-0.4100000000000002
40
-0.40000000000000019
40
-0.39000000000000018
40
-0.38000000000000017
40
-0.37000000000000016
40
-0.36000000000000015
40
-0.35000000000000014
40
-0.34000000000000014
40
-0.33000000000000013
40
-0.32000000000000012
40
-0.31000000000000011
40
-0.3000000000000001
40
-0.29000000000000009
40
-0.28000000000000008
40
-0.27000000000000007
40
-0.26000000000000006
40
-0.25000000000000006
40
-0.24000000000000007
40
-0.23000000000000007
40
-0.22000000000000006
40
-0.21000000000000005
40
-0.20000000000000004
40
-0.19000000000000003
40
-0.18000000000000002
40
-0.17000000000000001
40
-0.16
40
-0.14999999999999999
40
-0.13999999999999999
40
-0.12999999999999998
40
-0.11999999999999998
40
-0.10999999999999999
40
-0.099999999999999992
40
-0.089999999999999997
40
-0.080000000000000002
40
-0.070000000000000007
40
-0.060000000000000005
40
-0.050000000000000003
40
-0.040000000000000001
40
-0.029999999999999999
40
-0.02
40
-0.01
40
0
40
0
40
0
40
0
40
0
40
0
41
1
41
1
41
1
41
1
41
1
41
1
41
1
41
1
41
1
41
1
41
1
41
1
41
1
41
1
41
1
41
1
41
1
41
1
41
1
41
1
41
1
41
1
41
1
41
1
41
1
41
1
41
1
41
1
41
1
41
1
41
1
41
1
41
1
41
1
41
1
41
1
41
1
41
1
41
1
41
1
41
1
41
1
41
1
41
1
41
1
41
1
41
1
41
1
41
1
41
1
41
1
41
1
41
1
41
1
41
1
41
1
41
1
41
1
41
1
41
1
41
1
41
1
41
1
41
1
41
1
41
1
41
1
41
1
41
1
41
1
41
1
41
1
41
1
41
1
41
1
41
1
41
1
41
1
41
1
41
1
41
1
41
1
41
1
41
1
41
1
41
1
41
1
41
1
41
1
41
1
41
1
41
1
41
1
41
1
41
1
41
1
41
1
41
1
41
1
41
1
41
1
41
1
41
1
41
1
41
1
10
-28.766009972997605
20
-4.7901945290358157
30
0
10
-28.782830780604503
20
-4.7850353677827338
30
0
10
-28.815706827752678
20
-4.7707238140936168
30
0
10
-28.862724601390688
20
-4.737277874660796
30
0
10
-28.920818091675734
20
-4.6687127587747366
30
0
10
-28.986237587420753
20
-4.5443669809141687
30
0
10
-29.0457931209456
20
-4.3851786317676957
30
0
10
-29.102291099016774
20
-4.1991277558660629
30
0
10
-29.159444703710843
20
-3.9969578046526513
30
0
10
-29.220963071766768
20
-3.7898361806082539
30
0
10
-29.289732285885606
20
-3.5872627434497733
30
0
10
-29.367009665387517
20
-3.3950069942066001
30
0
10
-29.451473558569553
20
-3.2126788103900035
30
0
10
-29.539918279966496
20
-3.0354973437489594
30
0
10
-29.62817442974962
20
-2.8566337663010128
30
0
10
-29.711953786519398
20
-2.6693660967690302
30
0
10
-29.787713463751814
20
-2.4692727953028544
30
0
10
-29.853545470338844
20
-2.2565189744409846
30
0
10
-29.908874757131461
20
-2.0344175797098991
30
0
10
-29.954115004414163
20
-1.8078888392512265
30
0
10
-29.990335237199837
20
-1.5818850872591619
30
0
10
-30.018935030845281
20
-1.3599981273297628
30
0
10
-30.041284521663375
20
-1.1425667227409357
30
0
10
-30.058535239565487
20
-0.92702199238471117
30
0
10
-30.071536337733576
20
-0.70949309892849777
30
0
10
-30.080709019123848
20
-0.48607837920322194
30
0
10
-30.085958495457174
20
-0.25413813655291256
30
0
10
-30.086520167052328
20
-0.013859623952884276
30
0
10
-30.081000318332567
20
0.23124006853884571
30
0
10
-30.067804473747792
20
0.47601196967475995
30
0
10
-30.045473251092201
20
0.71486732818830312
30
0
10
-30.013075642300681
20
0.94323738397435042
30
0
10
-29.970530875845608
20
1.1587672900312616
30
0
10
-29.919082469668407
20
1.3630149682506663
30
0
10
-29.860975268637773
20
1.5605776460468919
30
0
10
-29.798863303128993
20
1.7573548007540492
30
0
10
-29.735283715230977
20
1.9590222220201317
30
0
10
-29.672153681868846
20
2.169581371615616
30
0
10
-29.610130111061341
20
2.3894653287835106
30
0
10
-29.548662253363265
20
2.6158799171988485
30
0
10
-29.486418689422948
20
2.8443438759098107
30
0
10
-29.421600185763733
20
3.0698782170700118
30
0
10
-29.352292873453326
20
3.2882878136522193
30
0
10
-29.27681973755427
20
3.497528862775996
30
0
10
-29.194045904477228
20
3.6986657838640937
30
0
10
-29.103395475571027
20
3.8945061980324587
30
0
10
-29.004903943713071
20
4.0885436269255084
30
0
10
-28.899261956541601
20
4.2837616097693081
30
0
10
-28.787852155002231
20
4.4815424443880687
30
0
10
-28.672818953651365
20
4.6804075278672279
30
0
10
-28.556617790330804
20
4.877020585621695
30
0
10
-28.441540569962299
20
5.0673261357503216
30
0
10
-28.329219121433965
20
5.2476973050158859
30
0
10
-28.220207015562721
20
5.4159468080080595
30
0
10
-28.113352495174464
20
5.5727317300714176
30
0
10
-28.006109348125435
20
5.7211648390221139
30
0
10
-27.895383353311225
20
5.8653994374368512
30
0
10
-27.778211731658669
20
6.0095341686744144
30
0
10
-27.652516256178853
20
6.1563772808052999
30
0
10
-27.517812715288478
20
6.3062931110520237
30
0
10
-27.374826656785917
20
6.4579788837046825
30
0
10
-27.225117966703074
20
6.6092298874930755
30
0
10
-27.07070433157627
20
6.7576997360287301
30
0
10
-26.913682752424826
20
6.9016807236208546
30
0
10
-26.755860067956874
20
7.040824523818296
30
0
10
-26.598590969828759
20
7.175624890955234
30
0
10
-26.442604067132773
20
7.3069507289341011
30
0
10
-26.287837483158238
20
7.4355672537639421
30
0
10
-26.133257365146463
20
7.5616467299923009
30
0
10
-25.976717879432126
20
7.684326631185197
30
0
10
-25.815611255359499
20
7.8022735667387311
30
0
10
-25.647499884704569
20
7.9142181786311543
30
0
10
-25.470723722343998
20
8.0194718677588668
30
0
10
-25.285091959585447
20
8.118519379137064
30
0
10
-25.092319853560035
20
8.213376494217302
30
0
10
-24.895160579430286
20
8.3067404917438701
30
0
10
-24.696706486766345
20
8.4012972771204435
30
0
10
-24.499624265022209
20
8.4989671763241699
30
0
10
-24.305419789451385
20
8.600177997177429
30
0
10
-24.113685373557153
20
8.7031216137095093
30
0
10
-23.92283649884515
20
8.8045962191726996
30
0
10
-23.730832790894265
20
8.9008359449910923
30
0
10
-23.535934195920483
20
8.9883687341994456
30
0
10
-23.337374394057122
20
9.0648073858822791
30
0
10
-23.136247667921943
20
9.1298136344483023
30
0
10
-22.934791625557317
20
9.1847458096607308
30
0
10
-22.735370477398462
20
9.2320417156207437
30
0
10
-22.539516638750008
20
9.2746918397993845
30
0
10
-22.34705036148593
20
9.3156797265912044
30
0
10
-22.154895744655331
20
9.357424275518273
30
0
10
-21.958441138886226
20
9.4013449854572801
30
0
10
-21.753352363349787
20
9.4474673359963841
30
0
10
-21.53728669741789
20
9.4939894236730744
30
0
10
-21.311517064785455
20
9.5369174430870078
30
0
10
-21.082945117021321
20
9.5695290945986162
30
0
10
-20.862623481412253
20
9.583254886545836
30
0
10
-20.663675130691669
20
9.5687983048381771
30
0
10
-20.49940138536121
20
9.5171859299533512
30
0
10
-20.381365451337622
20
9.4208154065705134
30
0
10
-20.317339362162681
20
9.2745902330519883
30
0
10
-20.311932180110105
20
9.0754913917816573
30
0
10
-20.356335289098723
20
8.8727172089710695
30
0
10
-20.417380478083299
20
8.6959554331922178
30
0
10
-20.470405642808949
20
8.5671465133071916
30
0
10
-20.500000305473804
20
8.5000001266598701
30
0
0
SPLINE
5
104
100
AcDbEntity
8
0
100
AcDbSpline
70
6
71
5
72
421
73
415
74
0
42
0.000000001
43
0.0000000001
44
0.0000000001
40
-1
40
-1
40
-1
40
-1
40
-1
40
-1
40
-0.99756097560975687
40
-0.99512195121951297
40
-0.99268292682926906
40
-0.99024390243902516
40
-0.98780487804878125
40
-0.98536585365853735
40
-0.98292682926829344
40
-0.98048780487804954
40
-0.97804878048780564
40
-0.97560975609756173
40
-0.97317073170731783
40
-0.97073170731707392
40
-0.96829268292683002
40
-0.96585365853658611
40
-0.96341463414634221
40
-0.9609756097560983
40
-0.9585365853658544
40
-0.95609756097561049
40
-0.95365853658536659
40
-0.95121951219512269
40
-0.94878048780487878
40
-0.94634146341463488
40
-0.94390243902439097
40
-0.94146341463414707
40
-0.93902439024390316
40
-0.93658536585365926
40
-0.93414634146341535
40
-0.93170731707317145
40
-0.92926829268292754
40
-0.92682926829268364
40
-0.92439024390243973
40
-0.92195121951219583
40
-0.91951219512195193
40
-0.91707317073170802
40
-0.91463414634146412
40
-0.91219512195122021
40
-0.90975609756097631
40
-0.9073170731707324
40
-0.9048780487804885
40
-0.90243902439024459
40
-0.90000000000000069
40
-0.89756097560975678
40
-0.89512195121951288
40
-0.89268292682926897
40
-0.89024390243902507
40
-0.88780487804878117
40
-0.88536585365853726
40
-0.88292682926829336
40
-0.88048780487804945
40
-0.87804878048780555
40
-0.87560975609756164
40
-0.87317073170731774
40
-0.87073170731707383
40
-0.86829268292682993
40
-0.86585365853658602
40
-0.86341463414634212
40
-0.86097560975609821
40
-0.85853658536585431
40
-0.85609756097561041
40
-0.8536585365853665
40
-0.8512195121951226
40
-0.84878048780487869
40
-0.84634146341463479
40
-0.84390243902439088
40
-0.84146341463414698
40
-0.83902439024390307
40
-0.83658536585365917
40
-0.83414634146341526
40
-0.83170731707317136
40
-0.82926829268292745
40
-0.82682926829268355
40
-0.82439024390243965
40
-0.82195121951219574
40
-0.81951219512195184
40
-0.81707317073170793
40
-0.81463414634146403
40
-0.81219512195122012
40
-0.80975609756097622
40
-0.80731707317073231
40
-0.80487804878048841
40
-0.8024390243902445
40
-0.8000000000000006
40
-0.79756097560975669
40
-0.79512195121951279
40
-0.79268292682926889
40
-0.79024390243902498
40
-0.78780487804878108
40
-0.78536585365853717
40
-0.78292682926829327
40
-0.78048780487804936
40
-0.77804878048780546
40
-0.77560975609756155
40
-0.77317073170731765
40
-0.77073170731707374
40
-0.76829268292682984
40
-0.76585365853658594
40
-0.76341463414634203
40
-0.76097560975609813
40
-0.75853658536585422
40
-0.75609756097561032
40
-0.75365853658536641
40
-0.75121951219512251
40
-0.7487804878048786
40
-0.7463414634146347
40
-0.74390243902439079
40
-0.74146341463414689
40
-0.73902439024390298
40
-0.73658536585365908
40
-0.73414634146341518
40
-0.73170731707317127
40
-0.72926829268292737
40
-0.72682926829268346
40
-0.72439024390243956
40
-0.72195121951219565
40
-0.71951219512195175
40
-0.71707317073170784
40
-0.71463414634146394
40
-0.71219512195122003
40
-0.70975609756097613
40
-0.70731707317073222
40
-0.70487804878048832
40
-0.70243902439024442
40
-0.70000000000000051
40
-0.69756097560975661
40
-0.6951219512195127
40
-0.6926829268292688
40
-0.69024390243902489
40
-0.68780487804878099
40
-0.68536585365853708
40
-0.68292682926829318
40
-0.68048780487804927
40
-0.67804878048780537
40
-0.67560975609756146
40
-0.67317073170731756
40
-0.67073170731707366
40
-0.66829268292682975
40
-0.66585365853658585
40
-0.66341463414634194
40
-0.66097560975609804
40
-0.65853658536585413
40
-0.65609756097561023
40
-0.65365853658536632
40
-0.65121951219512242
40
-0.64878048780487851
40
-0.64634146341463461
40
-0.6439024390243907
40
-0.6414634146341468
40
-0.6390243902439029
40
-0.63658536585365899
40
-0.63414634146341509
40
-0.63170731707317118
40
-0.62926829268292728
40
-0.62682926829268337
40
-0.62439024390243947
40
-0.62195121951219556
40
-0.61951219512195166
40
-0.61707317073170775
40
-0.61463414634146385
40
-0.61219512195121994
40
-0.60975609756097604
40
-0.60731707317073214
40
-0.60487804878048823
40
-0.60243902439024433
40
-0.60000000000000042
40
-0.59756097560975652
40
-0.59512195121951261
40
-0.59268292682926871
40
-0.5902439024390248
40
-0.5878048780487809
40
-0.58536585365853699
40
-0.58292682926829309
40
-0.58048780487804919
40
-0.57804878048780528
40
-0.57560975609756138
40
-0.57317073170731747
40
-0.57073170731707357
40
-0.56829268292682966
40
-0.56585365853658576
40
-0.56341463414634185
40
-0.56097560975609795
40
-0.55853658536585404
40
-0.55609756097561014
40
-0.55365853658536623
40
-0.55121951219512233
40
-0.54878048780487843
40
-0.54634146341463452
40
-0.54390243902439062
40
-0.54146341463414671
40
-0.53902439024390281
40
-0.5365853658536589
40
-0.534146341463415
40
-0.53170731707317109
40
-0.52926829268292719
40
-0.52682926829268328
40
-0.52439024390243938
40
-0.52195121951219547
40
-0.51951219512195157
40
-0.51707317073170767
40
-0.51463414634146376
40
-0.51219512195121986
40
-0.50975609756097595
40
-0.50731707317073205
40
-0.50487804878048814
40
-0.50243902439024424
40
-0.50000000000000033
40
-0.49756097560975648
40
-0.49512195121951258
40
-0.49268292682926867
40
-0.49024390243902477
40
-0.48780487804878087
40
-0.48536585365853696
40
-0.48292682926829306
40
-0.48048780487804915
40
-0.47804878048780525
40
-0.47560975609756134
40
-0.47317073170731744
40
-0.47073170731707353
40
-0.46829268292682963
40
-0.46585365853658572
40
-0.46341463414634182
40
-0.46097560975609791
40
-0.45853658536585401
40
-0.45609756097561011
40
-0.4536585365853662
40
-0.4512195121951223
40
-0.44878048780487839
40
-0.44634146341463449
40
-0.44390243902439058
40
-0.44146341463414668
40
-0.43902439024390277
40
-0.43658536585365887
40
-0.43414634146341496
40
-0.43170731707317106
40
-0.42926829268292716
40
-0.42682926829268325
40
-0.42439024390243935
40
-0.42195121951219544
40
-0.41951219512195154
40
-0.41707317073170763
40
-0.41463414634146373
40
-0.41219512195121982
40
-0.40975609756097592
40
-0.40731707317073201
40
-0.40487804878048811
40
-0.4024390243902442
40
-0.4000000000000003
40
-0.3975609756097564
40
-0.39512195121951249
40
-0.39268292682926859
40
-0.39024390243902468
40
-0.38780487804878078
40
-0.38536585365853687
40
-0.38292682926829297
40
-0.38048780487804906
40
-0.37804878048780516
40
-0.37560975609756125
40
-0.37317073170731735
40
-0.37073170731707344
40
-0.36829268292682954
40
-0.36585365853658564
40
-0.36341463414634173
40
-0.36097560975609783
40
-0.35853658536585392
40
-0.35609756097561002
40
-0.35365853658536611
40
-0.35121951219512221
40
-0.3487804878048783
40
-0.3463414634146344
40
-0.34390243902439049
40
-0.34146341463414659
40
-0.33902439024390268
40
-0.33658536585365878
40
-0.33414634146341488
40
-0.33170731707317097
40
-0.32926829268292707
40
-0.32682926829268316
40
-0.32439024390243926
40
-0.32195121951219535
40
-0.31951219512195145
40
-0.31707317073170754
40
-0.31463414634146364
40
-0.31219512195121973
40
-0.30975609756097583
40
-0.30731707317073192
40
-0.30487804878048802
40
-0.30243902439024412
40
-0.30000000000000021
40
-0.29756097560975631
40
-0.2951219512195124
40
-0.2926829268292685
40
-0.29024390243902459
40
-0.28780487804878069
40
-0.28536585365853678
40
-0.28292682926829288
40
-0.28048780487804897
40
-0.27804878048780507
40
-0.27560975609756116
40
-0.27317073170731726
40
-0.27073170731707336
40
-0.26829268292682945
40
-0.26585365853658555
40
-0.26341463414634164
40
-0.26097560975609774
40
-0.25853658536585383
40
-0.25609756097560993
40
-0.25365853658536602
40
-0.25121951219512212
40
-0.24878048780487821
40
-0.24634146341463431
40
-0.24390243902439041
40
-0.2414634146341465
40
-0.2390243902439026
40
-0.23658536585365869
40
-0.23414634146341479
40
-0.23170731707317088
40
-0.22926829268292698
40
-0.22682926829268307
40
-0.22439024390243917
40
-0.22195121951219526
40
-0.21951219512195136
40
-0.21707317073170745
40
-0.21463414634146355
40
-0.21219512195121965
40
-0.20975609756097574
40
-0.20731707317073184
40
-0.20487804878048793
40
-0.20243902439024403
40
-0.20000000000000012
40
-0.19756097560975622
40
-0.19512195121951231
40
-0.19268292682926841
40
-0.1902439024390245
40
-0.1878048780487806
40
-0.18536585365853669
40
-0.18292682926829279
40
-0.18048780487804889
40
-0.17804878048780498
40
-0.17560975609756108
40
-0.17317073170731717
40
-0.17073170731707327
40
-0.16829268292682936
40
-0.16585365853658546
40
-0.16341463414634155
40
-0.16097560975609765
40
-0.15853658536585374
40
-0.15609756097560984
40
-0.15365853658536593
40
-0.15121951219512203
40
-0.14878048780487813
40
-0.14634146341463422
40
-0.14390243902439032
40
-0.14146341463414641
40
-0.13902439024390251
40
-0.1365853658536586
40
-0.1341463414634147
40
-0.13170731707317079
40
-0.12926829268292689
40
-0.12682926829268298
40
-0.12439024390243909
40
-0.12195121951219519
40
-0.11951219512195128
40
-0.11707317073170738
40
-0.11463414634146347
40
-0.11219512195121957
40
-0.10975609756097567
40
-0.10731707317073176
40
-0.10487804878048786
40
-0.10243902439024395
40
-0.10000000000000005
40
-0.097560975609756143
40
-0.095121951219512238
40
-0.092682926829268333
40
-0.090243902439024429
40
-0.087804878048780524
40
-0.08536585365853662
40
-0.082926829268292715
40
-0.08048780487804881
40
-0.078048780487804906
40
-0.075609756097561001
40
-0.073170731707317097
40
-0.070731707317073192
40
-0.068292682926829287
40
-0.065853658536585383
40
-0.063414634146341478
40
-0.06097560975609758
40
-0.058536585365853676
40
-0.056097560975609771
40
-0.053658536585365867
40
-0.051219512195121962
40
-0.048780487804878057
40
-0.046341463414634153
40
-0.043902439024390248
40
-0.041463414634146344
40
-0.039024390243902439
40
-0.036585365853658534
40
-0.03414634146341463
40
-0.031707317073170725
40
-0.029268292682926824
40
-0.026829268292682923
40
-0.024390243902439022
40
-0.021951219512195121
40
-0.019512195121951219
40
-0.017073170731707318
40
-0.014634146341463415
40
-0.012195121951219513
40
-0.0097560975609756097
40
-0.0073170731707317069
40
-0.0048780487804878049
40
-0.0024390243902439024
40
0
40
0
40
0
40
0
40
0
40
0
41
1
41
1
41
1
41
1
41
1
41
1
41
1
41
1
41
1
41
1
41
1
41
1
41
1
41
1
41
1
41
1
41
1
41
1
41
1
41
1
41
1
41
1
41
1
41
1
41
1
41
1
41
1
41
1
41
1
41
1
41
1
41
1
41
1
41
1
41
1
41
1
41
1
41
1
41
1
41
1
41
1
41
1
41
1
41
1
41
1
41
1
41
1
41
1
41
1
41
1
41
1
41
1
41
1
41
1
41
1
41
1
41
1
41
1
41
1
41
1
41
1
41
1
41
1
41
1
41
1
41
1
41
1
41
1
41
1
41
1
41
1
41
1
41
1
41
1
41
1
41
1
41
1
41
1
41
1
41
1
41
1
41
1
41
1
41
1
41
1
41
1
41
1
41
1
41
1
41
1
41
1
41
1
41
1
41
1
41
1
41
1
41
1
41
1
41
1
41
1
41
1
41
1
41
1
41
1
41
1
41
1
41
1
41
1
41
1
41
1
41
1
41
1
41
1
41
1
41
1
41
1
41
1
41
1
41
1
41
1
41
1
41
1
41
1
41
1
41
1
41
1
41
1
41
1
41
1
41
1
41
1
41
1
41
1
41
1
41
1
41
1
41
1
41
1
41
1
41
1
41
1
41
1
41
1
41
1
41
1
41
1
41
1
41
1
41
1
41
1
41
1
41
1
41
1
41
1
41
1
41
1
41
1
41
1
41
1
41
1
41
1
41
1
41
1
41
1
41
1
41
1
41
1
41
1
41
1
41
1
41
1
41
1
41
1
41
1
41
1
41
1
41
1
41
1
41
1
41
1
41
1
41
1
41
1
41
1
41
1
41
1
41
1
41
1
41
1
41
1
41
1
41
1
41
1
41
1
41
1
41
1
41
1
41
1
41
1
41
1
41
1
41
1
41
1
41
1
41
1
41
1
41
1
41
1
41
1
41
1
41
1
41
1
41
1
41
1
41
1
41
1
41
1
41
1
41
1
41
1
41
1
41
1
41
1
41
1
41
1
41
1
41
1
41
1
41
1
41
1
41
1
41
1
41
1
41
1
41
1
41
1
41
1
41
1
41
1
41
1
41
1
41
1
41
1
41
1
41
1
41
1
41
1
41
1
41
1
41
1
41
1
41
1
41
1
41
1
41
1
41
1
41
1
41
1
41
1
41
1
41
1
41
1
41
1
41
1
41
1
41
1
41
1
41
1
41
1
41
1
41
1
41
1
41
1
41
1
41
1
41
1
41
1
41
1
41
1
41
1
41
1
41
1
41
1
41
1
41
1
41
1
41
1
41
1
41
1
41
1
41
1
41
1
41
1
41
1
41
1
41
1
41
1
41
1
41
1
41
1
41
1
41
1
41
1
41
1
41
1
41
1
41
1
41
1
41
1
41
1
41
1
41
1
41
1
41
1
41
1
41
1
41
1
41
1
41
1
41
1
41
1
41
1
41
1
41
1
41
1
41
1
41
1
41
1
41
1
41
1
41
1
41
1
41
1
41
1
41
1
41
1
41
1
41
1
41
1
41
1
41
1
41
1
41
1
41
1
41
1
41
1
41
1
41
1
41
1
41
1
41
1
41
1
41
1
41
1
41
1
41
1
41
1
41
1
41
1
41
1
41
1
41
1
41
1
41
1
41
1
41
1
41
1
41
1
41
1
41
1
41
1
41
1
41
1
41
1
41
1
41
1
41
1
41
1
41
1
41
1
41
1
41
1
41
1
41
1
41
1
41
1
41
1
41
1
41
1
41
1
41
1
41
1
41
1
41
1
41
1
41
1
41
1
41
1
41
1
41
1
41
1
41
1
41
1
41
1
41
1
41
1
41
1
41
1
41
1
41
1
41
1
41
1
41
1
41
1
41
1
10
-11.888831389583707
20
-5.380143965412846
30
0
10
-11.880604502089403
20
-5.4088807010937687
30
0
10
-11.869275773434197
20
-5.4664814773654964
30
0
10
-11.86770483684576
20
-5.5525499974478878
30
0
10
-11.894183569175024
20
-5.6641433785085304
30
0
10
-11.961280693769201
20
-5.7939074717439176
30
0
10
-12.045087185324121
20
-5.9112807304805015
30
0
10
-12.129086393396747
20
-6.0153994306825096
30
0
10
-12.201601373072696
20
-6.107174360304457
30
0
10
-12.260821732894874
20
-6.1893552752541661
30
0
10
-12.312222843558146
20
-6.2658789973543927
30
0
10
-12.364400405967459
20
-6.3410602427688847
30
0
10
-12.425639564805099
20
-6.4188693012990496
30
0
10
-12.499703950388149
20
-6.5020909515267791
30
0
10
-12.586561844159029
20
-6.5923370979543741
30
0
10
-12.683894176791071
20
-6.69019869949698
30
0
10
-12.788330586646442
20
-6.7953494703083459
30
0
10
-12.89680372839163
20
-6.9066693654618945
30
0
10
-13.007841537615846
20
-7.022360710429326
30
0
10
-13.121119863264752
20
-7.1402138102181585
30
0
10
-13.237015462279738
20
-7.2578717405943074
30
0
10
-13.356165682581658
20
-7.373091903839601
30
0
10
-13.479011136324486
20
-7.4840171602546981
30
0
10
-13.605378930208861
20
-7.5894235918111388
30
0
10
-13.733960689182524
20
-7.6890291766076366
30
0
10
-13.86266455743951
20
-7.7832963666413422
30
0
10
-13.989125926628397
20
-7.8731429891773166
30
0
10
-14.11115905657422
20
-7.9596868553268045
30
0
10
-14.227242045870801
20
-8.0439722959350348
30
0
10
-14.336967537511406
20
-8.1267136517027421
30
0
10
-14.441562039171119
20
-8.2080066676904888
30
0
10
-14.543351684638957
20
-8.2875257518961725
30
0
10
-14.645159748488645
20
-8.3647527902433083
30
0
10
-14.749716251069643
20
-8.4392000030201721
30
0
10
-14.859091122941008
20
-8.5106229246323366
30
0
10
-14.974041351178681
20
-8.5792703931946281
30
0
10
-15.094254780049791
20
-8.6457501994770567
30
0
10
-15.21871462286847
20
-8.7108450784756783
30
0
10
-15.346029102123655
20
-8.7753389592186437
30
0
10
-15.474757945721098
20
-8.8398554589900193
30
0
10
-15.603784679443907
20
-8.9046497960989406
30
0
10
-15.732468602035311
20
-8.9696067906878056
30
0
10
-15.860640904427239
20
-9.0343810827538178
30
0
10
-15.98864909833793
20
-9.0984958789507964
30
0
10
-16.117377376570076
20
-9.1614570866572436
30
0
10
-16.248287098264342
20
-9.2228649048700451
30
0
10
-16.383420542418193
20
-9.2825148804105648
30
0
10
-16.525009920436855
20
-9.3403344182698689
30
0
10
-16.675114164858879
20
-9.3963312531075474
30
0
10
-16.835242870193724
20
-9.4505370799572788
30
0
10
-17.005990971608959
20
-9.5029538636847466
30
0
10
-17.186656224075385
20
-9.5534975298633018
30
0
10
-17.374899529650577
20
-9.6019469271473348
30
0
10
-17.567323803747772
20
-9.6480000425494712
30
0
10
-17.760013920048831
20
-9.6913257080692201
30
0
10
-17.949093960446532
20
-9.7316173319330268
30
0
10
-18.131270990522019
20
-9.7686450133331562
30
0
10
-18.304398855238308
20
-9.8023101126624628
30
0
10
-18.467999880538279
20
-9.8326946225653717
30
0
10
-18.623894767342296
20
-9.8601239302406114
30
0
10
-18.77550826615829
20
-9.8850648722925811
30
0
10
-18.927029228354048
20
-9.9080052509075465
30
0
10
-19.082634401160558
20
-9.9293422240467919
30
0
10
-19.245659084851191
20
-9.9492618935685648
30
0
10
-19.417852146695477
20
-9.9676345198057206
30
0
10
-19.598433043491834
20
-9.9838718757330582
30
0
10
-19.784631407214889
20
-9.9970700062870339
30
0
10
-19.972526889390011
20
-10.006209904865006
30
0
10
-20.15778461290353
20
-10.010337978839413
30
0
10
-20.336435856994775
20
-10.008755443185217
30
0
10
-20.505636043957111
20
-10.001202871380206
30
0
10
-20.664440309782641
20
-9.9880492613720424
30
0
10
-20.814549569624653
20
-9.9704722969274009
30
0
10
-20.959432183886957
20
-9.9501118768904036
30
0
10
-21.103481120205974
20
-9.9287367963665112
30
0
10
-21.251139492192177
20
-9.9078974785865199
30
0
10
-21.406081437416663
20
-9.8886051799202992
30
0
10
-21.570268830106802
20
-9.87095057140791
30
0
10
-21.743371697188884
20
-9.8539005189233091
30
0
10
-21.923484924494588
20
-9.8357288260881006
30
0
10
-22.107643552601711
20
-9.8143498827982132
30
0
10
-22.292407353819534
20
-9.7876827097542769
30
0
10
-22.474437873333152
20
-9.7540195266562595
30
0
10
-22.651027337389515
20
-9.7123516053265906
30
0
10
-22.820774820130772
20
-9.662813972447454
30
0
10
-22.983715346866276
20
-9.6066949404364728
30
0
10
-23.140828397126029
20
-9.5459529220411703
30
0
10
-23.293710159191583
20
-9.4828636832206286
30
0
10
-23.44417713540793
20
-9.4196118504895825
30
0
10
-23.593903695455694
20
-9.3579123446277439
30
0
10
-23.744034237901793
20
-9.2986045444803604
30
0
10
-23.89483689594174
20
-9.241298981137021
30
0
10
-24.045946645521163
20
-9.1848085660783223
30
0
10
-24.196578780897472
20
-9.1275405616384191
30
0
10
-24.34575258194133
20
-9.0679007976411867
30
0
10
-24.492512746137535
20
-9.0046983925985984
30
0
10
-24.636146833322897
20
-8.9375368286903747
30
0
10
-24.776417871790276
20
-8.8672473802978207
30
0
10
-24.913464083990249
20
-8.7954270482453296
30
0
10
-25.047680504318276
20
-8.7239304933761588
30
0
10
-25.179606422638248
20
-8.6543718980952722
30
0
10
-25.309812135602868
20
-8.58763804891041
30
0
10
-25.438781815761061
20
-8.5233599499041119
30
0
10
-25.566810147876957
20
-8.4595091069599349
30
0
10
-25.694024826351335
20
-8.3931542392247795
30
0
10
-25.820398948940774
20
-8.3211011844418206
30
0
10
-25.945765630913069
20
-8.2406110856084034
30
0
10
-26.069835415984045
20
-8.1500083276449509
30
0
10
-26.192203176858179
20
-8.0495267593357376
30
0
10
-26.312398504100809
20
-7.9412613641862748
30
0
10
-26.429976446176244
20
-7.8283397018700542
30
0
10
-26.544593515975116
20
-7.7143266714906753
30
0
10
-26.656097069848247
20
-7.6025030405153124
30
0
10
-26.764592009217015
20
-7.4952687970747878
30
0
10
-26.870559066168372
20
-7.3933183011876533
30
0
10
-26.974787838334855
20
-7.2955935042355353
30
0
10
-27.078114638919995
20
-7.2000462105213261
30
0
10
-27.181213617085888
20
-7.1041833204597964
30
0
10
-27.284363658960235
20
-7.0057034447603588
30
0
10
-27.387231420356557
20
-6.9030876939133714
30
0
10
-27.488632193539587
20
-6.7962283403390966
30
0
10
-27.587029242867406
20
-6.6860069395852486
30
0
10
-27.681022873090132
20
-6.5738651781665531
30
0
10
-27.769890368880269
20
-6.461357757534528
30
0
10
-27.853997659451402
20
-6.3497593769122513
30
0
10
-27.935526751143019
20
-6.2395350031345096
30
0
10
-28.01811928647345
20
-6.1302819785623885
30
0
10
-28.105071517850423
20
-6.0213055410769156
30
0
10
-28.197868822867331
20
-5.9120428652325039
30
0
10
-28.294623212448112
20
-5.8025371036188407
30
0
10
-28.388457373320371
20
-5.693916583625386
30
0
10
-28.466170830107771
20
-5.5887998245627299
30
0
10
-28.512701333577585
20
-5.4901634991545079
30
0
10
-28.515598390408122
20
-5.400188522323849
30
0
10
-28.468997760099903
20
-5.3192843206862737
30
0
10
-28.379048885171812
20
-5.2446112249289856
30
0
10
-28.261025639007478
20
-5.1714461764531947
30
0
10
-28.133684851970834
20
-5.0954606704665775
30
0
10
-28.014354537152677
20
-5.0148071824117126
30
0
10
-27.914120935715218
20
-4.9320387824869814
30
0
10
-27.831916213138307
20
-4.8567475636518385
30
0
10
-27.758403016547959
20
-4.8021516400376187
30
0
10
-27.681999648960893
20
-4.7803360705656068
30
0
10
-27.593920358316115
20
-4.7981769764477091
30
0
10
-27.494255295821421
20
-4.8524175695909308
30
0
10
-27.389142131677787
20
-4.9326794688395745
30
0
10
-27.286829301706295
20
-5.0254727829220078
30
0
10
-27.194428192708493
20
-5.1176018328502195
30
0
10
-27.113675636312632
20
-5.2004141623648215
30
0
10
-27.039470061321651
20
-5.2717140327758036
30
0
10
-26.963875218353593
20
-5.3331214200479771
30
0
10
-26.878857317458483
20
-5.3884426080288463
30
0
10
-26.779758326439431
20
-5.4415386093866625
30
0
10
-26.667789471348371
20
-5.4946926398030502
30
0
10
-26.54760514888979
20
-5.5490854354169059
30
0
10
-26.425314430717187
20
-5.605070787511
30
0
10
-26.306463647676871
20
-5.6625152948782622
30
0
10
-26.193705260018163
20
-5.721137558956495
30
0
10
-26.085653649136905
20
-5.7807607897090341
30
0
10
-25.97871727855718
20
-5.8413069655626124
30
0
10
-25.868402643171517
20
-5.9028467016004331
30
0
10
-25.750718247344111
20
-5.9656180588792544
30
0
10
-25.623800204000101
20
-6.0300799250545767
30
0
10
-25.488505231309894
20
-6.0968747121317248
30
0
10
-25.347341143249022
20
-6.1666571649282185
30
0
10
-25.203809813726373
20
-6.2399590436768824
30
0
10
-25.061553173294744
20
-6.3170299335372535
30
0
10
-24.923653553012826
20
-6.3977099930747769
30
0
10
-24.791693232112472
20
-6.4812348477252559
30
0
10
-24.665659513836591
20
-6.5663000133875249
30
0
10
-24.544514896963356
20
-6.6513338313518418
30
0
10
-24.426573362268194
20
-6.7347082878054563
30
0
10
-24.309965276529798
20
-6.8149806824274286
30
0
10
-24.193043292060899
20
-6.8911096484565473
30
0
10
-24.074869151933328
20
-6.962715093711763
30
0
10
-23.955108670490525
20
-7.029987640456258
30
0
10
-23.833838122883368
20
-7.0935429625858584
30
0
10
-23.7113743626592
20
-7.1542941579608463
30
0
10
-23.588111044395937
20
-7.2133193140200227
30
0
10
-23.464312316149343
20
-7.271724247639515
30
0
10
-23.34009825980224
20
-7.3305381729043182
30
0
10
-23.215571730944568
20
-7.3906386191143669
30
0
10
-23.090909940442302
20
-7.4526630841484724
30
0
10
-22.966457196952376
20
-7.5169363343024926
30
0
10
-22.842849086254219
20
-7.5833666511943854
30
0
10
-22.721021699418475
20
-7.6514327340470212
30
0
10
-22.601882591446941
20
-7.7204271188180931
30
0
10
-22.486042703320077
20
-7.789653667012562
30
0
10
-22.373524774511605
20
-7.8586427799283705
30
0
10
-22.26348031776006
20
-7.9273600430090259
30
0
10
-22.153907458911416
20
-7.9964147466549909
30
0
10
-22.042400795010408
20
-8.0666962746720579
30
0
10
-21.926873351407515
20
-8.1390233534776151
30
0
10
-21.80632508904635
20
-8.2137738847652084
30
0
10
-21.681508980686065
20
-8.2905564458139285
30
0
10
-21.555857632374568
20
-8.3677760581223986
30
0
10
-21.434334017882641
20
-8.4430565168945524
30
0
10
-21.321958642437053
20
-8.5138114347368052
30
0
10
-21.222350095962486
20
-8.5777765501819694
30
0
10
-21.136484043260829
20
-8.6335288703338371
30
0
10
-21.060792595349245
20
-8.6810863195092409
30
0
10
-20.988476533587651
20
-8.7220708981664625
30
0
10
-20.91235873995252
20
-8.7596194400422096
30
0
10
-20.82732012906099
20
-8.7984330323781794
30
0
10
-20.732725558565765
20
-8.8446174159132713
30
0
10
-20.631109816831319
20
-8.9032863102655089
30
0
10
-20.527084293971637
20
-8.9760553029728278
30
0
10
-20.426164787219371
20
-9.0590164693327537
30
0
10
-20.333618941765845
20
-9.1394015150878598
30
0
10
-20.2533237143994
20
-9.1997196625852098
30
0
10
-20.186503654888757
20
-9.2250239684734883
30
0
10
-20.130743704571877
20
-9.2084139318673479
30
0
10
-20.078302562989254
20
-9.1591044078541941
30
0
10
-20.019192848180865
20
-9.0952300989357546
30
0
10
-19.944973800877438
20
-9.0342166029526467
30
0
10
-19.852992820911915
20
-8.9822798783177689
30
0
10
-19.745656224144735
20
-8.9360579821058934
30
0
10
-19.628183748054468
20
-8.8880654043787217
30
0
10
-19.506967380454647
20
-8.8305329874615524
30
0
10
-19.387475989872179
20
-8.7606338379132591
30
0
10
-19.273004528578696
20
-8.6828291062011953
30
0
10
-19.165212435958992
20
-8.6049863339943329
30
0
10
-19.064325555398113
20
-8.5355636349051007
30
0
10
-18.969464094997299
20
-8.4806374972106546
30
0
10
-18.878933738277212
20
-8.4403632150329422
30
0
10
-18.790471592091762
20
-8.4077842710799082
30
0
10
-18.701253798644615
20
-8.3734919535645211
30
0
10
-18.608029153826603
20
-8.3287627562835258
30
0
10
-18.507035427730688
20
-8.2700399230688646
30
0
10
-18.394583112999481
20
-8.2002899463923331
30
0
10
-18.268647279836408
20
-8.1258339208985735
30
0
10
-18.130265558489963
20
-8.0541912400066611
30
0
10
-17.984926234128828
20
-7.99157880870548
30
0
10
-17.844168245260018
20
-7.9404105775840526
30
0
10
-17.726480944667294
20
-7.8972238421692653
30
0
10
-17.650288497310513
20
-7.8559208241124914
30
0
10
-17.627851088198099
20
-7.8104892786686246
30
0
10
-17.658213182888488
20
-7.7581122846388233
30
0
10
-17.722240487041574
20
-7.7015802954172248
30
0
10
-17.795730789788784
20
-7.645888041884926
30
0
10
-17.861626020933656
20
-7.5951720619115548
30
0
10
-17.921203622594184
20
-7.5498089100571661
30
0
10
-17.984058417603116
20
-7.5077075920115259
30
0
10
-18.060195837462711
20
-7.4652934653117189
30
0
10
-18.149941454351747
20
-7.4186109805836109
30
0
10
-18.246583805511019
20
-7.3644723516107566
30
0
10
-18.341694353146707
20
-7.3017595580726846
30
0
10
-18.429103468203497
20
-7.2324656839580985
30
0
10
-18.510503972667742
20
-7.1633590256765665
30
0
10
-18.593591377579223
20
-7.1040739894787972
30
0
10
-18.687571584171792
20
-7.0638063382369491
30
0
10
-18.799910775927376
20
-7.0487946000593809
30
0
10
-18.931653239076589
20
-7.0586893121839154
30
0
10
-19.077701172704799
20
-7.0871273494961908
30
0
10
-19.229822905919654
20
-7.1246616391174866
30
0
10
-19.3788958123118
20
-7.1610363750140724
30
0
10
-19.517332816542933
20
-7.1875986440346651
30
0
10
-19.641746004420366
20
-7.1999710357463531
30
0
10
-19.754539123535924
20
-7.1996318959074879
30
0
10
-19.861345257933237
20
-7.1913029827571506
30
0
10
-19.969044724549892
20
-7.180916795206107
30
0
10
-20.083711671797477
20
-7.1735242708942968
30
0
10
-20.208195582612515
20
-7.1708036383889784
30
0
10
-20.342349342727495
20
-7.1714097810540895
30
0
10
-20.484159880288448
20
-7.1722867859039479
30
0
10
-20.63061239759541
20
-7.1697020221114984
30
0
10
-20.77858935184895
20
-7.1603021246658614
30
0
10
-20.925944845357524
20
-7.1423943746922847
30
0
10
-21.071667678110025
20
-7.1161001768531849
30
0
10
-21.215347628143345
20
-7.0826514169326131
30
0
10
-21.356848670197571
20
-7.0439402486595455
30
0
10
-21.495892766024038
20
-7.0019613791958113
30
0
10
-21.631691654213718
20
-6.9583076213897517
30
0
10
-21.762531638111714
20
-6.9136229045548045
30
0
10
-21.886355654528455
20
-6.8678141868451172
30
0
10
-22.001371534254233
20
-6.8202843422030739
30
0
10
-22.106659334611514
20
-6.7701591595428789
30
0
10
-22.202759573956765
20
-6.7165131409651551
30
0
10
-22.292323993425313
20
-6.6586061684181281
30
0
10
-22.379136988080365
20
-6.5957880100929165
30
0
10
-22.467001460212156
20
-6.5273695061711754
30
0
10
-22.558775017645129
20
-6.4525370502129977
30
0
10
-22.655094930498176
20
-6.3701725488309693
30
0
10
-22.754470996778714
20
-6.2790877729967054
30
0
10
-22.854090295735787
20
-6.1784565935355671
30
0
10
-22.95041594025729
20
-6.0682203047803718
30
0
10
-23.03983821017151
20
-5.9494277684540089
30
0
10
-23.119383543207661
20
-5.8247891559416392
30
0
10
-23.187103418143714
20
-5.6984634056774794
30
0
10
-23.241998265511405
20
-5.5748556846495676
30
0
10
-23.284072044884891
20
-5.4576146383682769
30
0
10
-23.314304485654649
20
-5.3486498148308232
30
0
10
-23.334728651727062
20
-5.2468990147925423
30
0
10
-23.348236450528287
20
-5.1479797660920292
30
0
10
-23.357632094444092
20
-5.0463615602643763
30
0
10
-23.364866900814473
20
-4.9369989865763237
30
0
10
-23.370109651433026
20
-4.8173302593100766
30
0
10
-23.371157060523092
20
-4.6886766444353558
30
0
10
-23.3646069442316
20
-4.554735702908002
30
0
10
-23.34685255424294
20
-4.4203838494379228
30
0
10
-23.315089794249534
20
-4.2904116686711751
30
0
10
-23.268450510410993
20
-4.1681666368570554
30
0
10
-23.208683083547573
20
-4.0546039716094233
30
0
10
-23.138947413952557
20
-3.9491116932557646
30
0
10
-23.062847646083281
20
-3.8500882264243694
30
0
10
-22.983454904522446
20
-3.7555854338138408
30
0
10
-22.902137221684697
20
-3.663998203093382
30
0
10
-22.81812401280586
20
-3.5744862474546024
30
0
10
-22.729619749725849
20
-3.4867836181067791
30
0
10
-22.634638372930915
20
-3.4011413869396616
30
0
10
-22.531851705685206
20
-3.3182094053110522
30
0
10
-22.421669381088488
20
-3.2389626946903345
30
0
10
-22.306292520436543
20
-3.1645373917708715
30
0
10
-22.18870333922267
20
-3.0959970822576515
30
0
10
-22.071908162384638
20
-3.0341038681091206
30
0
10
-21.958152117113453
20
-2.9791165310853658
30
0
10
-21.847964942956079
20
-2.9305073280959508
30
0
10
-21.739896190876902
20
-2.8869512261707015
30
0
10
-21.631511509231096
20
-2.8467953927229503
30
0
10
-21.520137949909714
20
-2.8084365846971071
30
0
10
-21.403641905188337
20
-2.770703390078527
30
0
10
-21.281366671473485
20
-2.7333182081515521
30
0
10
-21.153876006825016
20
-2.6967921898627143
30
0
10
-21.022320903154935
20
-2.6621384413406393
30
0
10
-20.887904236827566
20
-2.6306401238934063
30
0
10
-20.751368244376955
20
-2.6036089322429934
30
0
10
-20.612311295809391
20
-2.5821140753779575
30
0
10
-20.46940979312425
20
-2.5668977272489157
30
0
10
-20.321099442380692
20
-2.5583873976596596
30
0
10
-20.166110655556054
20
-2.5566777376660306
30
0
10
-20.004066990503237
20
-2.5615247719386542
30
0
10
-19.836050851552653
20
-2.5723354089048831
30
0
10
-19.665199281249787
20
-2.5881572327042441
30
0
10
-19.495852212896235
20
-2.6078244409913358
30
0
10
-19.332675974056794
20
-2.6301071420870699
30
0
10
-19.17980751499114
20
-2.6538580976325092
30
0
10
-19.039963396690752
20
-2.6781634536921946
30
0
10
-18.913626089985964
20
-2.7024849454103697
30
0
10
-18.798030078704116
20
-2.7268238989532962
30
0
10
-18.68831462021047
20
-2.7516614731405928
30
0
10
-18.578999719666484
20
-2.7778735175619049
30
0
10
-18.465261144660992
20
-2.8066484152976692
30
0
10
-18.344491297776766
20
-2.8394177281473638
30
0
10
-18.217095115943863
20
-2.8777366753486673
30
0
10
-18.085303466040155
20
-2.9230279391683518
30
0
10
-17.952347116259972
20
-2.9763480162068152
30
0
10
-17.821501947209654
20
-3.0381510871688628
30
0
10
-17.695156633929564
20
-3.1080387602580983
30
0
10
-17.573963876816059
20
-3.1845596826253568
30
0
10
-17.457474220470434
20
-3.2657257780829725
30
0
10
-17.34465877699207
20
-3.3494680809690269
30
0
10
-17.234499298928888
20
-3.4341444581331486
30
0
10
-17.126492370941392
20
-3.518958968909303
30
0
10
-17.021335329762483
20
-3.6045868480591032
30
0
10
-16.920786710873184
20
-3.6928503176128564
30
0
10
-16.827132894381435
20
-3.785951898945668
30
0
10
-16.74276132370855
20
-3.8858069062626326
30
0
10
-16.669727470120282
20
-3.9934233372673327
30
0
10
-16.609230564671897
20
-4.1080424934098057
30
0
10
-16.561526623575364
20
-4.2273081407936797
30
0
10
-16.526193713393397
20
-4.348239532483051
30
0
10
-16.502308014180123
20
-4.468018140254463
30
0
10
-16.48862908245728
20
-4.5847517759327747
30
0
10
-16.483851616114904
20
-4.6985018896351978
30
0
10
-16.48638625865032
20
-4.8106398306120051
30
0
10
-16.493921311387673
20
-4.922500905822905
30
0
10
-16.503124973786264
20
-5.0343957064317371
30
0
10
-16.509130260149874
20
-5.1441790717819753
30
0
10
-16.50563831294636
20
-5.2469768947519384
30
0
10
-16.486602480560379
20
-5.3377828181587104
30
0
10
-16.447445959055941
20
-5.4132451487412716
30
0
10
-16.386809779964796
20
-5.4743234846546098
30
0
10
-16.306842828122107
20
-5.5266186654424683
30
0
10
-16.211375339163727
20
-5.5773560757462732
30
0
10
-16.104738572535155
20
-5.63337893286434
30
0
10
-15.990004039795165
20
-5.6982531099105422
30
0
10
-15.868882669275431
20
-5.771881064728781
30
0
10
-15.742662132990297
20
-5.851700626085564
30
0
10
-15.612869429703618
20
-5.9334293566645009
30
0
10
-15.481986599299443
20
-6.0119815890049155
30
0
10
-15.354284889479338
20
-6.0823450135713051
30
0
10
-15.236204550151069
20
-6.1403762614602106
30
0
10
-15.133840251787682
20
-6.1827744672625249
30
0
10
-15.050470081235719
20
-6.2071404724725738
30
0
10
-14.984594072260649
20
-6.2120107844911718
30
0
10
-14.926455379394881
20
-6.1968831818917991
30
0
10
-14.861711245497887
20
-6.1623275830031323
30
0
10
-14.777989394604024
20
-6.1100954818483082
30
0
10
-14.671749446685061
20
-6.0433203259985735
30
0
10
-14.547262217895947
20
-5.9661032513127648
30
0
10
-14.412977695456613
20
-5.8829221173389534
30
0
10
-14.278662581597972
20
-5.7980809351841263
30
0
10
-14.152489994710375
20
-5.7151848344503069
30
0
10
-14.037482240770149
20
-5.6365009565519433
30
0
10
-13.93058832695375
20
-5.5627339959961333
30
0
10
-13.825846873192249
20
-5.4934474792457344
30
0
10
-13.716662644518454
20
-5.4273263571924799
30
0
10
-13.5982520826437
20
-5.3625147012696832
30
0
10
-13.470466483920724
20
-5.2968948521065542
30
0
10
-13.339018570079586
20
-5.2284761907164921
30
0
10
-13.212004787112516
20
-5.1560588027021401
30
0
10
-13.097309462891882
20
-5.0798426474751626
30
0
10
-12.999624680056147
20
-5.0020700776162785
30
0
10
-12.917715682606152
20
-4.9276266927079853
30
0
10
-12.841356788791154
20
-4.8647356284302576
30
0
10
-12.756432614567043
20
-4.8229045443431344
30
0
10
-12.650355965735622
20
-4.8107621184196043
30
0
10
-12.517311971442354
20
-4.8339554312442212
30
0
10
-12.363732498478317
20
-4.8929667238414307
30
0
10
-12.20432915297387
20
-4.984230777680831
30
0
10
-12.057937695259184
20
-5.1013179822154777
30
0
10
-11.966333451921205
20
-5.2091382873557999
30
0
10
-11.918637098400049
20
-5.2940610632799228
30
0
10
-11.897058277078019
20
-5.3514072297319135
30
0
10
-11.888831389583707
20
-5.380143965412846
30
0
0
LWPOLYLINE
5
105
100
AcDbEntity
8
0
100
AcDbPolyline
90
6
70
1
43
0.0
10
-20
20
-15
42
-0.99999999999999989
10
-20
20
15
10
19.999999999999996
20
14.999999999999998
42
-0.33866858159214963
10
34.4778869800355
20
3.923109556629607
42
-1.1435437497937322
10
34.45532924964904
20
-4.0054283521542269
42
-0.33708361964838363
10
20
20
-15
0
LWPOLYLINE
5
106
100
AcDbEntity
8
0
100
AcDbPolyline
90
4
70
1
43
0.0
10
-4.3561656004136706
20
8.3556361756025872
10
30.643834921126775
20
8.3556361756025925
10
30.643834921126775
20
-4.644364018112431
10
-4.3561656004136724
20
-4.6443640181124373
0
LINE
5
107
100
AcDbEntity
8
0
100
AcDbLine
10
30.643834921126775
20
3.3556361010968572
30
0
11
30.643834921126775
21
-4.6443640181124319
31
0
0
LINE
5
108
100
AcDbEntity
8
0
100
AcDbLine
10
30.643834921126775
20
-4.6443640181124319
30
0
11
25.159523862009458
21
-4.6443640181124328
31
0
0
LINE
5
109
100
AcDbEntity
8
0
100
AcDbLine
10
25.159523862009458
20
-4.6443640181124337
30
0
11
25.159523862009458
21
-3.2910214850008614
31
0
0
LINE
5
110
100
AcDbEntity
8
0
100
AcDbLine
10
25.159523862009458
20
-3.2910214850008606
30
0
11
29.028555231695584
21
-3.2910214850008601
31
0
0
LINE
5
111
100
AcDbEntity
8
0
100
AcDbLine
10
29.028555231695584
20
-3.2910214850008606
30
0
11
29.028555231695584
21
-1.397433776527655
31
0
0
LINE
5
112
100
AcDbEntity
8
0
100
AcDbLine
10
29.028555231695584
20
-1.3974337765276545
30
0
11
25.688855426912717
21
-1.397433776527655
31
0
0
LINE
5
113
100
AcDbEntity
8
0
100
AcDbLine
10
25.688855426912717
20
-1.3974337765276557
30
0
11
25.688855426912717
21
-0.044091243416083392
31
0
0
LINE
5
114
100
AcDbEntity
8
0
100
AcDbLine
10
25.688855426912717
20
-0.044091243416083392
30
0
11
29.028555231695584
21
-0.044091243416082969
31
0
0
LINE
5
115
100
AcDbEntity
8
0
100
AcDbLine
10
29.028555231695584
20
-0.044091243416082282
30
0
11
29.028555231695584
21
3.3556361010968572
31
0
0
LINE
5
116
100
AcDbEntity
8
0
100
AcDbLine
10
29.028555231695584
20
3.3556361010968572
30
0
11
30.643834921126775
21
3.3556361010968572
31
0
0
LINE
5
117
100
AcDbEntity
8
0
100
AcDbLine
10
22.692948358660153
20
-0.6716488787233954
30
0
11
24.08448972046893
21
-0.92267205205560965
31
0
0
SPLINE
5
118
100
AcDbEntity
8
0
100
AcDbSpline
70
0
71
2
72
6
73
3
74
0
42
0.000000001
43
0.0000000001
44
0.0000000001
40
0
40
0
40
0
40
1
40
1
40
1
10
24.08448972046893
20
-0.92267205205560976
30
0
10
23.849837558870725
20
-1.7630540319979315
30
0
10
23.276850360041074
20
-2.16687371221186
30
0
0
SPLINE
5
119
100
AcDbEntity
8
0
100
AcDbSpline
70
0
71
2
72
6
73
3
74
0
42
0.000000001
43
0.0000000001
44
0.0000000001
40
0
40
0
40
0
40
1
40
1
40
1
10
23.276850360041074
20
-2.16687371221186
30
0
10
22.703862565164975
20
-2.570693988472236
30
0
10
21.574257987146787
20
-2.570693988472236
30
0
0
SPLINE
5
120
100
AcDbEntity
8
0
100
AcDbSpline
70
0
71
2
72
6
73
3
74
0
42
0.000000001
43
0.0000000001
44
0.0000000001
40
0
40
0
40
0
40
1
40
1
40
1
10
21.574257987146787
20
-2.570693988472236
30
0
10
20.548336880808286
20
-2.570693988472236
30
0
10
20.046290534143857
20
-2.3278563210070264
30
0
0
SPLINE
5
121
100
AcDbEntity
8
0
100
AcDbSpline
70
0
71
2
72
6
73
3
74
0
42
0.000000001
43
0.0000000001
44
0.0000000001
40
0
40
0
40
0
40
1
40
1
40
1
10
20.046290534143857
20
-2.3278563210070264
30
0
10
19.544244187479428
20
-2.0850186535418165
30
0
10
19.339605944757871
20
-1.7112122961580878
30
0
0
SPLINE
5
122
100
AcDbEntity
8
0
100
AcDbSpline
70
0
71
2
72
6
73
3
74
0
42
0.000000001
43
0.0000000001
44
0.0000000001
40
0
40
0
40
0
40
1
40
1
40
1
10
19.339605944757871
20
-1.7112122961580878
30
0
10
19.134967702036313
20
-1.3374059387743598
30
0
10
19.134967702036313
20
-0.3387706467211371
30
0
0
LINE
5
123
100
AcDbEntity
8
0
100
AcDbLine
10
19.134967702036313
20
-0.3387706467211371
30
0
11
19.151338713770322
21
1.4511341861188287
31
0
0
SPLINE
5
124
100
AcDbEntity
8
0
100
AcDbSpline
70
0
71
2
72
6
73
3
74
0
42
0.000000001
43
0.0000000001
44
0.0000000001
40
0
40
0
40
0
40
1
40
1
40
1
10
19.151338713770322
20
1.4511341861188287
30
0
10
19.151338713770325
20
2.2151179126202933
30
0
10
19.077668564920838
20
2.5780100634991996
30
0
0
SPLINE
5
125
100
AcDbEntity
8
0
100
AcDbSpline
70
0
71
2
72
6
73
3
74
0
42
0.000000001
43
0.0000000001
44
0.0000000001
40
0
40
0
40
0
40
1
40
1
40
1
10
19.077668564920838
20
2.5780100634991996
30
0
10
19.003999608164246
20
2.9409022143781058
30
0
10
18.802088873987611
20
3.355636101096855
30
0
0
LINE
5
126
100
AcDbEntity
8
0
100
AcDbLine
10
18.802088873987611
20
3.355636101096855
30
0
11
20.31914271653217
21
3.355636101096855
31
0
0
SPLINE
5
127
100
AcDbEntity
8
0
100
AcDbSpline
70
0
71
2
72
6
73
3
74
0
42
0.000000001
43
0.0000000001
44
0.0000000001
40
0
40
0
40
0
40
1
40
1
40
1
10
20.31914271653217
20
3.355636101096855
30
0
10
20.37916936219257
20
3.202839594215142
30
0
10
20.466481822138249
20
2.9027027896344535
30
0
0
SPLINE
5
128
100
AcDbEntity
8
0
100
AcDbSpline
70
0
71
2
72
6
73
3
74
0
42
0.000000001
43
0.0000000001
44
0.0000000001
40
0
40
0
40
0
40
1
40
1
40
1
10
20.466481822138249
20
2.9027027896344535
30
0
10
20.504681246881901
20
2.7662772944867484
30
0
10
20.52105225861591
20
2.7226210645139091
30
0
0
SPLINE
5
129
100
AcDbEntity
8
0
100
AcDbSpline
70
0
71
2
72
6
73
3
74
0
42
0.000000001
43
0.0000000001
44
0.0000000001
40
0
40
0
40
0
40
1
40
1
40
1
10
20.52105225861591
20
2.7226210645139091
30
0
10
20.913957732325017
20
3.1046129277646415
30
0
10
21.361433642511784
20
3.2956082633435591
30
0
0
SPLINE
5
130
100
AcDbEntity
8
0
100
AcDbSpline
70
0
71
2
72
6
73
3
74
0
42
0.000000001
43
0.0000000001
44
0.0000000001
40
0
40
0
40
0
40
1
40
1
40
1
10
21.361433642511784
20
3.2956082633435591
30
0
10
21.808910148744992
20
3.4866041949689253
30
0
10
22.316413300638608
20
3.4866041949689253
30
0
0
SPLINE
5
131
100
AcDbEntity
8
0
100
AcDbSpline
70
0
71
2
72
6
73
3
74
0
42
0.000000001
43
0.0000000001
44
0.0000000001
40
0
40
0
40
0
40
1
40
1
40
1
10
22.316413300638608
20
3.4866041949689253
30
0
10
23.211365717058591
20
3.4866041949689275
30
0
10
23.727054970865659
20
3.000929456084954
30
0
0
SPLINE
5
132
100
AcDbEntity
8
0
100
AcDbSpline
70
0
71
2
72
6
73
3
74
0
42
0.000000001
43
0.0000000001
44
0.0000000001
40
0
40
0
40
0
40
1
40
1
40
1
10
23.727054970865659
20
3.000929456084954
30
0
10
24.242743628626279
20
2.5152541211545341
30
0
10
24.242743628626279
20
1.7730982116162652
30
0
0
SPLINE
5
133
100
AcDbEntity
8
0
100
AcDbSpline
70
0
71
2
72
6
73
3
74
0
42
0.000000001
43
0.0000000001
44
0.0000000001
40
0
40
0
40
0
40
1
40
1
40
1
10
24.242743628626279
20
1.7730982116162652
30
0
10
24.242743628626279
20
1.2819666675031061
30
0
10
24.008091467028073
20
0.89724610361455626
30
0
0
SPLINE
5
134
100
AcDbEntity
8
0
100
AcDbSpline
70
0
71
2
72
6
73
3
74
0
42
0.000000001
43
0.0000000001
44
0.0000000001
40
0
40
0
40
0
40
1
40
1
40
1
10
24.008091467028073
20
0.89724610361455626
30
0
10
23.773439305429868
20
0.51252553972600645
30
0
10
23.350519912844113
20
0.30788729700444883
30
0
0
SPLINE
5
135
100
AcDbEntity
8
0
100
AcDbSpline
70
0
71
2
72
6
73
3
74
0
42
0.000000001
43
0.0000000001
44
0.0000000001
40
0
40
0
40
0
40
1
40
1
40
1
10
23.350519912844113
20
0.30788729700444883
30
0
10
22.927600520258359
20
0.10324905428289122
30
0
10
22.130874770288877
20
-0.049548048645270404
30
0
0
SPLINE
5
136
100
AcDbEntity
8
0
100
AcDbSpline
70
0
71
2
72
6
73
3
74
0
42
0.000000001
43
0.0000000001
44
0.0000000001
40
0
40
0
40
0
40
1
40
1
40
1
10
22.130874770288877
20
-0.049548048645270404
30
0
10
21.055840628748349
20
-0.25145818677545839
30
0
10
20.641106742029599
20
-0.42608310666681581
30
0
0
LINE
5
137
100
AcDbEntity
8
0
100
AcDbLine
10
20.641106742029599
20
-0.42608310666681581
30
0
11
20.641106742029599
21
-0.57887961354852968
31
0
0
SPLINE
5
138
100
AcDbEntity
8
0
100
AcDbSpline
70
0
71
2
72
6
73
3
74
0
42
0.000000001
43
0.0000000001
44
0.0000000001
40
0
40
0
40
0
40
1
40
1
40
1
10
20.641106742029599
20
-0.57887961354852968
30
0
10
20.641106742029599
20
-1.0208981224596625
30
0
10
20.859387295847348
20
-1.2091659494936591
30
0
0
SPLINE
5
139
100
AcDbEntity
8
0
100
AcDbSpline
70
0
71
2
72
6
73
3
74
0
42
0.000000001
43
0.0000000001
44
0.0000000001
40
0
40
0
40
0
40
1
40
1
40
1
10
20.859387295847348
20
-1.2091659494936591
30
0
10
21.077669041757993
20
-1.3974337765276557
30
0
10
21.683398860102109
20
-1.3974337765276557
30
0
0
SPLINE
5
140
100
AcDbEntity
8
0
100
AcDbSpline
70
0
71
2
72
6
73
3
74
0
42
0.000000001
43
0.0000000001
44
0.0000000001
40
0
40
0
40
0
40
1
40
1
40
1
10
21.683398860102109
20
-1.3974337765276557
30
0
10
22.092675345545224
20
-1.3974337765276557
30
0
10
22.321870701914243
20
-1.2364511677324896
30
0
0
SPLINE
5
141
100
AcDbEntity
8
0
100
AcDbSpline
70
0
71
2
72
6
73
3
74
0
42
0.000000001
43
0.0000000001
44
0.0000000001
40
0
40
0
40
0
40
1
40
1
40
1
10
22.321870701914243
20
-1.2364511677324896
30
0
10
22.551065462236814
20
-1.0754685589373236
30
0
10
22.692948358660153
20
-0.6716488787233954
30
0
0
SPLINE
5
142
100
AcDbEntity
8
0
100
AcDbSpline
70
0
71
2
72
6
73
3
74
0
42
0.000000001
43
0.0000000001
44
0.0000000001
40
0
40
0
40
0
40
1
40
1
40
1
10
20.641106742029599
20
0.57255337747930235
30
0
10
20.935786145334653
20
0.67077944788335508
30
0
10
21.574257987146787
20
0.80720494303106016
30
0
0
SPLINE
5
143
100
AcDbEntity
8
0
100
AcDbSpline
70
0
71
2
72
6
73
3
74
0
42
0.000000001
43
0.0000000001
44
0.0000000001
40
0
40
0
40
0
40
1
40
1
40
1
10
21.574257987146787
20
0.80720494303106016
30
0
10
22.212729828958921
20
0.94363043817876524
30
0
10
22.409183161859922
20
1.0745997241437311
30
0
0
SPLINE
5
144
100
AcDbEntity
8
0
100
AcDbSpline
70
0
71
2
72
6
73
3
74
0
42
0.000000001
43
0.0000000001
44
0.0000000001
40
0
40
0
40
0
40
1
40
1
40
1
10
22.409183161859922
20
1.0745997241437311
30
0
10
22.709319370394162
20
1.2874228766858453
30
0
10
22.709319370394162
20
1.6148448995053644
30
0
0
SPLINE
5
145
100
AcDbEntity
8
0
100
AcDbSpline
70
0
71
2
72
6
73
3
74
0
42
0.000000001
43
0.0000000001
44
0.0000000001
40
0
40
0
40
0
40
1
40
1
40
1
10
22.709319370394162
20
1.6148448995053644
30
0
10
22.709319370394162
20
1.9368095210492486
30
0
10
22.46921040356677
20
2.171461682647454
30
0
0
SPLINE
5
146
100
AcDbEntity
8
0
100
AcDbSpline
70
0
71
2
72
6
73
3
74
0
42
0.000000001
43
0.0000000001
44
0.0000000001
40
0
40
0
40
0
40
1
40
1
40
1
10
22.46921040356677
20
2.171461682647454
30
0
10
22.229100840692929
20
2.4061138442456595
30
0
10
21.858023183947019
20
2.4061138442456595
30
0
0
SPLINE
5
147
100
AcDbEntity
8
0
100
AcDbSpline
70
0
71
2
72
6
73
3
74
0
42
0.000000001
43
0.0000000001
44
0.0000000001
40
0
40
0
40
0
40
1
40
1
40
1
10
21.858023183947019
20
2.4061138442456595
30
0
10
21.443288701181828
20
2.4061138442456595
30
0
10
21.06675423920673
20
2.1332622579038016
30
0
0
SPLINE
5
148
100
AcDbEntity
8
0
100
AcDbSpline
70
0
71
2
72
6
73
3
74
0
42
0.000000001
43
0.0000000001
44
0.0000000001
40
0
40
0
40
0
40
1
40
1
40
1
10
21.06675423920673
20
2.1332622579038016
30
0
10
20.788445847635685
20
1.9258953145444269
30
0
10
20.701134579782895
20
1.6257591060101861
30
0
0
SPLINE
5
149
100
AcDbEntity
8
0
100
AcDbSpline
70
0
71
2
72
6
73
3
74
0
42
0.000000001
43
0.0000000001
44
0.0000000001
40
0
40
0
40
0
40
1
40
1
40
1
10
20.701134579782895
20
1.6257591060101861
30
0
10
20.641106742029599
20
1.4293057731091852
30
0
10
20.641106742029599
20
0.87814639124273008
30
0
0
LINE
5
150
100
AcDbEntity
8
0
100
AcDbLine
10
20.641106742029599
20
0.87814639124273008
30
0
11
20.641106742029599
21
0.57255337747930235
31
0
0
LINE
5
151
100
AcDbEntity
8
0
100
AcDbLine
10
17.688856499796326
20
3.355636101096855
30
0
11
17.688856499796326
21
-4.6443634220659868
31
0
0
LINE
5
152
100
AcDbEntity
8
0
100
AcDbLine
10
17.688856499796323
20
-4.644363422065986
30
0
11
16.155431645517758
21
-4.644363422065986
31
0
0
LINE
5
153
100
AcDbEntity
8
0
100
AcDbLine
10
16.155431645517758
20
-4.6443634220659868
30
0
11
16.155431645517758
21
-1.7630540319979326
31
0
0
SPLINE
5
154
100
AcDbEntity
8
0
100
AcDbSpline
70
0
71
2
72
6
73
3
74
0
42
0.000000001
43
0.0000000001
44
0.0000000001
40
0
40
0
40
0
40
1
40
1
40
1
10
16.155431645517758
20
-1.7630540319979322
30
0
10
15.44601954758685
20
-2.5706939884722368
30
0
10
14.47466887772601
20
-2.5706939884722368
30
0
0
SPLINE
5
155
100
AcDbEntity
8
0
100
AcDbSpline
70
0
71
2
72
6
73
3
74
0
42
0.000000001
43
0.0000000001
44
0.0000000001
40
0
40
0
40
0
40
1
40
1
40
1
10
14.47466887772601
20
-2.5706939884722368
30
0
10
13.416004555826596
20
-2.5706939884722368
30
0
10
12.722962277536801
20
-1.8039815613329546
30
0
0
SPLINE
5
156
100
AcDbEntity
8
0
100
AcDbSpline
70
0
71
2
72
6
73
3
74
0
42
0.000000001
43
0.0000000001
44
0.0000000001
40
0
40
0
40
0
40
1
40
1
40
1
10
12.722962277536801
20
-1.8039815613329546
30
0
10
12.029919999247007
20
-1.0372697302401201
30
0
10
12.029919999247007
20
0.39792845758794382
30
0
0
SPLINE
5
157
100
AcDbEntity
8
0
100
AcDbSpline
70
0
71
2
72
6
73
3
74
0
42
0.000000001
43
0.0000000001
44
0.0000000001
40
0
40
0
40
0
40
1
40
1
40
1
10
12.029919999247007
20
0.39792845758794382
30
0
10
12.029919999247007
20
1.8822390845715864
30
0
10
12.736605780725892
20
2.6844222358167036
30
0
0
SPLINE
5
158
100
AcDbEntity
8
0
100
AcDbSpline
70
0
71
2
72
6
73
3
74
0
42
0.000000001
43
0.0000000001
44
0.0000000001
40
0
40
0
40
0
40
1
40
1
40
1
10
12.736605780725892
20
2.6844222358167036
30
0
10
13.443290370111878
20
3.4866041949689253
30
0
10
14.45284046471637
20
3.4866041949689253
30
0
0
SPLINE
5
159
100
AcDbEntity
8
0
100
AcDbSpline
70
0
71
2
72
6
73
3
74
0
42
0.000000001
43
0.0000000001
44
0.0000000001
40
0
40
0
40
0
40
1
40
1
40
1
10
14.45284046471637
20
3.4866041949689253
30
0
10
14.949429410105164
20
3.4866041949689253
30
0
10
15.432376044397767
20
3.238310318320976
30
0
0
SPLINE
5
160
100
AcDbEntity
8
0
100
AcDbSpline
70
0
71
2
72
6
73
3
74
0
42
0.000000001
43
0.0000000001
44
0.0000000001
40
0
40
0
40
0
40
1
40
1
40
1
10
15.432376044397767
20
3.238310318320976
30
0
10
15.915322678690369
20
2.9900152495801313
30
0
10
16.264572518473084
20
2.5043399146497114
30
0
0
LINE
5
161
100
AcDbEntity
8
0
100
AcDbLine
10
16.264572518473084
20
2.5043399146497114
30
0
11
16.264572518473084
21
3.355636101096855
31
0
0
LINE
5
162
100
AcDbEntity
8
0
100
AcDbLine
10
16.264572518473084
20
3.355636101096855
30
0
11
17.688856499796326
21
3.355636101096855
31
0
0
SPLINE
5
163
100
AcDbEntity
8
0
100
AcDbSpline
70
0
71
2
72
6
73
3
74
0
42
0.000000001
43
0.0000000001
44
0.0000000001
40
0
40
0
40
0
40
1
40
1
40
1
10
16.166346448069028
20
0.33244381460546091
30
0
10
16.166346448069028
20
1.2328530362546308
30
0
10
15.882580655222348
20
1.6639585307538374
30
0
0
SPLINE
5
164
100
AcDbEntity
8
0
100
AcDbSpline
70
0
71
2
72
6
73
3
74
0
42
0.000000001
43
0.0000000001
44
0.0000000001
40
0
40
0
40
0
40
1
40
1
40
1
10
15.882580655222348
20
1.6639585307538374
30
0
10
15.484217780237611
20
2.2751451543271406
30
0
10
14.823917525415833
20
2.2751451543271406
30
0
0
SPLINE
5
165
100
AcDbEntity
8
0
100
AcDbSpline
70
0
71
2
72
6
73
3
74
0
42
0.000000001
43
0.0000000001
44
0.0000000001
40
0
40
0
40
0
40
1
40
1
40
1
10
14.823917525415833
20
2.2751451543271406
30
0
10
14.316414969568665
20
2.2751451543271406
30
0
10
13.958979027872495
20
1.8413115552365644
30
0
0
SPLINE
5
166
100
AcDbEntity
8
0
100
AcDbSpline
70
0
71
2
72
6
73
3
74
0
42
0.000000001
43
0.0000000001
44
0.0000000001
40
0
40
0
40
0
40
1
40
1
40
1
10
13.958979027872495
20
1.8413115552365644
30
0
10
13.601544278269223
20
1.4074779561459883
30
0
10
13.601544278269223
20
0.474326114982353
30
0
0
SPLINE
5
167
100
AcDbEntity
8
0
100
AcDbSpline
70
0
71
2
72
6
73
3
74
0
42
0.000000001
43
0.0000000001
44
0.0000000001
40
0
40
0
40
0
40
1
40
1
40
1
10
13.601544278269223
20
0.474326114982353
30
0
10
13.601544278269223
20
-0.51885177579523489
30
0
10
13.961707728510312
20
-0.95814277616144583
30
0
0
SPLINE
5
168
100
AcDbEntity
8
0
100
AcDbSpline
70
0
71
2
72
6
73
3
74
0
42
0.000000001
43
0.0000000001
44
0.0000000001
40
0
40
0
40
0
40
1
40
1
40
1
10
13.961707728510312
20
-0.95814277616144583
30
0
10
14.321871178751401
20
-1.3974337765276568
30
0
10
14.883945363169126
20
-1.3974337765276568
30
0
0
SPLINE
5
169
100
AcDbEntity
8
0
100
AcDbSpline
70
0
71
2
72
6
73
3
74
0
42
0.000000001
43
0.0000000001
44
0.0000000001
40
0
40
0
40
0
40
1
40
1
40
1
10
14.883945363169126
20
-1.3974337765276568
30
0
10
15.435104745035581
20
-1.3974337765276568
30
0
10
15.800725596552304
20
-0.96905638661981985
30
0
0
SPLINE
5
170
100
AcDbEntity
8
0
100
AcDbSpline
70
0
71
2
72
6
73
3
74
0
42
0.000000001
43
0.0000000001
44
0.0000000001
40
0
40
0
40
0
40
1
40
1
40
1
10
15.800725596552304
20
-0.96905638661981985
30
0
10
16.166346448069028
20
-0.54068018880487845
30
0
10
16.166346448069028
20
0.33244381460546091
30
0
0
LINE
5
171
100
AcDbEntity
8
0
100
AcDbLine
10
10.742061513071469
20
3.355636101096855
30
0
11
10.742061513071469
21
-4.5788793751299517
31
0
0
LINE
5
172
100
AcDbEntity
8
0
100
AcDbLine
10
10.742061513071469
20
-4.5788793751299517
30
0
11
9.1267827922157565
21
-4.5788793751299517
31
0
0
LINE
5
173
100
AcDbEntity
8
0
100
AcDbLine
10
9.1267827922157565
20
-4.5788793751299526
30
0
11
9.1267827922157583
21
2.007750969260917
31
0
0
LINE
5
174
100
AcDbEntity
8
0
100
AcDbLine
10
9.1267827922157565
20
2.0077509692609166
30
0
11
5.1104096347145367
21
2.0077509692609157
31
0
0
LINE
5
175
100
AcDbEntity
8
0
100
AcDbLine
10
5.1104096347145367
20
2.0077509692609166
30
0
11
5.1104096347145367
21
3.3556361010968541
31
0
0
LINE
5
176
100
AcDbEntity
8
0
100
AcDbLine
10
5.1104096347145367
20
3.3556361010968527
30
0
11
10.742061513071469
21
3.3556361010968532
31
0
0
LINE
5
177
100
AcDbEntity
8
0
100
AcDbLine
10
2.8239158564857769
20
-0.67164887872339762
30
0
11
4.2154578143410015
21
-0.92267205205561187
31
0
0
SPLINE
5
178
100
AcDbEntity
8
0
100
AcDbSpline
70
0
71
2
72
6
73
3
74
0
42
0.000000001
43
0.0000000001
44
0.0000000001
40
0
40
0
40
0
40
1
40
1
40
1
10
4.2154578143410015
20
-0.92267205205561198
30
0
10
3.9808038646034527
20
-1.7630540319979338
30
0
10
3.4078172618202496
20
-2.1668737122118618
30
0
0
SPLINE
5
179
100
AcDbEntity
8
0
100
AcDbSpline
70
0
71
2
72
6
73
3
74
0
42
0.000000001
43
0.0000000001
44
0.0000000001
40
0
40
0
40
0
40
1
40
1
40
1
10
3.4078172618202496
20
-2.1668737122118618
30
0
10
2.8348282748512554
20
-2.5706939884722386
30
0
10
1.7052248889259625
20
-2.5706939884722386
30
0
0
SPLINE
5
180
100
AcDbEntity
8
0
100
AcDbSpline
70
0
71
2
72
6
73
3
74
0
42
0.000000001
43
0.0000000001
44
0.0000000001
40
0
40
0
40
0
40
1
40
1
40
1
10
1.7052248889259625
20
-2.5706939884722386
30
0
10
0.679304974680357
20
-2.5706939884722386
30
0
10
0.17725743592303278
20
-2.3278563210070287
30
0
0
SPLINE
5
181
100
AcDbEntity
8
0
100
AcDbSpline
70
0
71
2
72
6
73
3
74
0
42
0.000000001
43
0.0000000001
44
0.0000000001
40
0
40
0
40
0
40
1
40
1
40
1
10
0.17725743592303278
20
-2.3278563210070287
30
0
10
-0.32478771864850042
20
-2.0850186535418187
30
0
10
-0.52942715346295355
20
-1.7112122961580911
30
0
0
SPLINE
5
182
100
AcDbEntity
8
0
100
AcDbSpline
70
0
71
2
72
6
73
3
74
0
42
0.000000001
43
0.0000000001
44
0.0000000001
40
0
40
0
40
0
40
1
40
1
40
1
10
-0.52942715346295355
20
-1.7112122961580911
30
0
10
-0.73406420409161566
20
-1.3374059387743631
30
0
10
-0.73406420409161566
20
-0.33877064672114043
30
0
0
LINE
5
183
100
AcDbEntity
8
0
100
AcDbLine
10
-0.73406420409161566
20
-0.33877064672114043
30
0
11
-0.71769438445050215
21
1.4511341861188254
31
0
0
SPLINE
5
184
100
AcDbEntity
8
0
100
AcDbSpline
70
0
71
2
72
6
73
3
74
0
42
0.000000001
43
0.0000000001
44
0.0000000001
40
0
40
0
40
0
40
1
40
1
40
1
10
-0.71769438445050238
20
1.4511341861188254
30
0
10
-0.71769438445050238
20
2.2151179126202902
30
0
10
-0.79136572539288519
20
2.5780100634991965
30
0
0
SPLINE
5
185
100
AcDbEntity
8
0
100
AcDbSpline
70
0
71
2
72
6
73
3
74
0
42
0.000000001
43
0.0000000001
44
0.0000000001
40
0
40
0
40
0
40
1
40
1
40
1
10
-0.79136572539288519
20
2.5780100634991965
30
0
10
-0.86503468214947699
20
2.9409022143781027
30
0
10
-1.0669442242332172
20
3.3556361010968527
30
0
0
LINE
5
186
100
AcDbEntity
8
0
100
AcDbLine
10
-1.0669442242332172
20
3.3556361010968527
30
0
11
0.45010842621844294
21
3.3556361010968527
31
0
0
SPLINE
5
187
100
AcDbEntity
8
0
100
AcDbSpline
70
0
71
2
72
6
73
3
74
0
42
0.000000001
43
0.0000000001
44
0.0000000001
40
0
40
0
40
0
40
1
40
1
40
1
10
0.45010842621844294
20
3.3556361010968527
30
0
10
0.51013745606463434
20
3.2028395942151389
30
0
10
0.59744872391741755
20
2.9027027896344504
30
0
0
SPLINE
5
188
100
AcDbEntity
8
0
100
AcDbSpline
70
0
71
2
72
6
73
3
74
0
42
0.000000001
43
0.0000000001
44
0.0000000001
40
0
40
0
40
0
40
1
40
1
40
1
10
0.59744872391741755
20
2.9027027896344504
30
0
10
0.63564814866106989
20
2.7662772944867453
30
0
10
0.65201796830218317
20
2.722621064513906
30
0
0
SPLINE
5
189
100
AcDbEntity
8
0
100
AcDbSpline
70
0
71
2
72
6
73
3
74
0
42
0.000000001
43
0.0000000001
44
0.0000000001
40
0
40
0
40
0
40
1
40
1
40
1
10
0.65201796830218317
20
2.722621064513906
30
0
10
1.0449246341041851
20
3.1046129277646397
30
0
10
1.4924005442909527
20
3.2956082633435568
30
0
0
SPLINE
5
190
100
AcDbEntity
8
0
100
AcDbSpline
70
0
71
2
72
6
73
3
74
0
42
0.000000001
43
0.0000000001
44
0.0000000001
40
0
40
0
40
0
40
1
40
1
40
1
10
1.4924005442909527
20
3.2956082633435568
30
0
10
1.9398764544777203
20
3.486604194968923
30
0
10
2.4473813945106793
20
3.486604194968923
30
0
0
SPLINE
5
191
100
AcDbEntity
8
0
100
AcDbSpline
70
0
71
2
72
6
73
3
74
0
42
0.000000001
43
0.0000000001
44
0.0000000001
40
0
40
0
40
0
40
1
40
1
40
1
10
2.4473813945106793
20
3.486604194968923
30
0
10
3.3423332148842144
20
3.486604194968923
30
0
10
3.858020680551939
20
3.0009294560849522
30
0
0
SPLINE
5
192
100
AcDbEntity
8
0
100
AcDbSpline
70
0
71
2
72
6
73
3
74
0
42
0.000000001
43
0.0000000001
44
0.0000000001
40
0
40
0
40
0
40
1
40
1
40
1
10
3.858020680551939
20
3.0009294560849522
30
0
10
4.3737105304054547
20
2.5152541211545323
30
0
10
4.3737105304054547
20
1.773098211616263
30
0
0
SPLINE
5
193
100
AcDbEntity
8
0
100
AcDbSpline
70
0
71
2
72
6
73
3
74
0
42
0.000000001
43
0.0000000001
44
0.0000000001
40
0
40
0
40
0
40
1
40
1
40
1
10
4.3737105304054547
20
1.773098211616263
30
0
10
4.3737105304054547
20
1.2819666675031038
30
0
10
4.1390589648536968
20
0.89724610361455404
30
0
0
SPLINE
5
194
100
AcDbEntity
8
0
100
AcDbSpline
70
0
71
2
72
6
73
3
74
0
42
0.000000001
43
0.0000000001
44
0.0000000001
40
0
40
0
40
0
40
1
40
1
40
1
10
4.1390589648536968
20
0.89724610361455404
30
0
10
3.904407399301939
20
0.51252553972600423
30
0
10
3.4814862185768414
20
0.30788729700444661
30
0
0
SPLINE
5
195
100
AcDbEntity
8
0
100
AcDbSpline
70
0
71
2
72
6
73
3
74
0
42
0.000000001
43
0.0000000001
44
0.0000000001
40
0
40
0
40
0
40
1
40
1
40
1
10
3.4814862185768414
20
0.30788729700444661
30
0
10
3.0585674220375347
20
0.103249054282889
30
0
10
2.2618416720680523
20
-0.049548048645272624
30
0
0
SPLINE
5
196
100
AcDbEntity
8
0
100
AcDbSpline
70
0
71
2
72
6
73
3
74
0
42
0.000000001
43
0.0000000001
44
0.0000000001
40
0
40
0
40
0
40
1
40
1
40
1
10
2.2618416720680523
20
-0.049548048645272624
30
0
10
1.186807530527525
20
-0.25145818677546061
30
0
10
0.77207364380877497
20
-0.42608310666681914
30
0
0
LINE
5
197
100
AcDbEntity
8
0
100
AcDbLine
10
0.77207364380877497
20
-0.42608310666681914
30
0
11
0.77207364380877497
21
-0.57887961354853301
31
0
0
SPLINE
5
198
100
AcDbEntity
8
0
100
AcDbSpline
70
0
71
2
72
6
73
3
74
0
42
0.000000001
43
0.0000000001
44
0.0000000001
40
0
40
0
40
0
40
1
40
1
40
1
10
0.77207364380877497
20
-0.57887961354853301
30
0
10
0.77207364380877497
20
-1.0208981224596658
30
0
10
0.9903553897194195
20
-1.2091659494936613
30
0
0
SPLINE
5
199
100
AcDbEntity
8
0
100
AcDbSpline
70
0
71
2
72
6
73
3
74
0
42
0.000000001
43
0.0000000001
44
0.0000000001
40
0
40
0
40
0
40
1
40
1
40
1
10
0.9903553897194195
20
-1.2091659494936613
30
0
10
1.208634751444273
20
-1.3974337765276579
30
0
10
1.8143657618812847
20
-1.3974337765276579
30
0
0
SPLINE
5
200
100
AcDbEntity
8
0
100
AcDbSpline
70
0
71
2
72
6
73
3
74
0
42
0.000000001
43
0.0000000001
44
0.0000000001
40
0
40
0
40
0
40
1
40
1
40
1
10
1.8143657618812847
20
-1.3974337765276579
30
0
10
2.2236422473244
20
-1.3974337765276579
30
0
10
2.452836411600523
20
-1.2364511677324919
30
0
0
SPLINE
5
201
100
AcDbEntity
8
0
100
AcDbSpline
70
0
71
2
72
6
73
3
74
0
42
0.000000001
43
0.0000000001
44
0.0000000001
40
0
40
0
40
0
40
1
40
1
40
1
10
2.452836411600523
20
-1.2364511677324919
30
0
10
2.6820329600624371
20
-1.0754685589373258
30
0
10
2.8239158564857769
20
-0.67164887872339762
30
0
0
SPLINE
5
202
100
AcDbEntity
8
0
100
AcDbSpline
70
0
71
2
72
6
73
3
74
0
42
0.000000001
43
0.0000000001
44
0.0000000001
40
0
40
0
40
0
40
1
40
1
40
1
10
0.77207364380877497
20
0.57255337747929902
30
0
10
1.0667518550209332
20
0.67077944788335286
30
0
10
1.7052248889259625
20
0.80720494303105794
30
0
0
SPLINE
5
203
100
AcDbEntity
8
0
100
AcDbSpline
70
0
71
2
72
6
73
3
74
0
42
0.000000001
43
0.0000000001
44
0.0000000001
40
0
40
0
40
0
40
1
40
1
40
1
10
1.7052248889259625
20
0.80720494303105794
30
0
10
2.3436979228309918
20
0.94363043817876302
30
0
10
2.5401500636390972
20
1.0745997241437288
30
0
0
SPLINE
5
204
100
AcDbEntity
8
0
100
AcDbSpline
70
0
71
2
72
6
73
3
74
0
42
0.000000001
43
0.0000000001
44
0.0000000001
40
0
40
0
40
0
40
1
40
1
40
1
10
2.5401500636390972
20
1.0745997241437288
30
0
10
2.8402856761268902
20
1.2874228766858431
30
0
10
2.8402856761268902
20
1.6148448995053621
30
0
0
SPLINE
5
205
100
AcDbEntity
8
0
100
AcDbSpline
70
0
71
2
72
6
73
3
74
0
42
0.000000001
43
0.0000000001
44
0.0000000001
40
0
40
0
40
0
40
1
40
1
40
1
10
2.8402856761268902
20
1.6148448995053621
30
0
10
2.8402856761268902
20
1.9368095210492464
30
0
10
2.6001767092994976
20
2.1714616826474522
30
0
0
SPLINE
5
206
100
AcDbEntity
8
0
100
AcDbSpline
70
0
71
2
72
6
73
3
74
0
42
0.000000001
43
0.0000000001
44
0.0000000001
40
0
40
0
40
0
40
1
40
1
40
1
10
2.6001767092994976
20
2.1714616826474522
30
0
10
2.360067742472105
20
2.4061138442456578
30
0
10
1.9889906817726422
20
2.4061138442456578
30
0
0
SPLINE
5
207
100
AcDbEntity
8
0
100
AcDbSpline
70
0
71
2
72
6
73
3
74
0
42
0.000000001
43
0.0000000001
44
0.0000000001
40
0
40
0
40
0
40
1
40
1
40
1
10
1.9889906817726422
20
2.4061138442456578
30
0
10
1.5742567950538922
20
2.4061138442456578
30
0
10
1.1977223330787945
20
2.1332622579037999
30
0
0
SPLINE
5
208
100
AcDbEntity
8
0
100
AcDbSpline
70
0
71
2
72
6
73
3
74
0
42
0.000000001
43
0.0000000001
44
0.0000000001
40
0
40
0
40
0
40
1
40
1
40
1
10
1.1977223330787945
20
2.1332622579037999
30
0
10
0.91941394150774958
20
1.9258953145444246
30
0
10
0.83210028946917536
20
1.6257591060101828
30
0
0
SPLINE
5
209
100
AcDbEntity
8
0
100
AcDbSpline
70
0
71
2
72
6
73
3
74
0
42
0.000000001
43
0.0000000001
44
0.0000000001
40
0
40
0
40
0
40
1
40
1
40
1
10
0.83210028946917536
20
1.6257591060101828
30
0
10
0.77207364380877497
20
1.4293057731091818
30
0
10
0.77207364380877497
20
0.87814639124272675
30
0
0
LINE
5
210
100
AcDbEntity
8
0
100
AcDbLine
10
0.77207364380877497
20
0.87814639124272675
30
0
11
0.77207364380877497
21
0.57255337747929902
31
0
0
LINE
5
211
100
AcDbEntity
8
0
100
AcDbLine
10
-2.1801754063316059
20
3.3556361010968527
30
0
11
-2.1801754063316068
21
-4.6443634220659895
31
0
0
LINE
5
212
100
AcDbEntity
8
0
100
AcDbLine
10
-2.1801754063316059
20
-4.6443634220659895
30
0
11
-3.7136002606101703
21
-4.6443634220659895
31
0
0
LINE
5
213
100
AcDbEntity
8
0
100
AcDbLine
10
-3.7136002606101703
20
-4.6443634220659895
30
0
11
-3.7136002606101699
21
-1.7630540319979349
31
0
0
SPLINE
5
214
100
AcDbEntity
8
0
100
AcDbSpline
70
0
71
2
72
6
73
3
74
0
42
0.000000001
43
0.0000000001
44
0.0000000001
40
0
40
0
40
0
40
1
40
1
40
1
10
-3.7136002606101703
20
-1.7630540319979349
30
0
10
-4.4230123585410785
20
-2.5706939884722391
30
0
10
-5.3943630284019184
20
-2.5706939884722391
30
0
0
SPLINE
5
215
100
AcDbEntity
8
0
100
AcDbSpline
70
0
71
2
72
6
73
3
74
0
42
0.000000001
43
0.0000000001
44
0.0000000001
40
0
40
0
40
0
40
1
40
1
40
1
10
-5.3943630284019184
20
-2.5706939884722391
30
0
10
-6.4530273503013325
20
-2.5706939884722395
30
0
10
-7.1460696285911274
20
-1.8039815613329573
30
0
0
SPLINE
5
216
100
AcDbEntity
8
0
100
AcDbSpline
70
0
71
2
72
6
73
3
74
0
42
0.000000001
43
0.0000000001
44
0.0000000001
40
0
40
0
40
0
40
1
40
1
40
1
10
-7.1460696285911274
20
-1.8039815613329573
30
0
10
-7.8391119068809223
20
-1.0372697302401224
30
0
10
-7.8391119068809223
20
0.3979284575879416
30
0
0
SPLINE
5
217
100
AcDbEntity
8
0
100
AcDbSpline
70
0
71
2
72
6
73
3
74
0
42
0.000000001
43
0.0000000001
44
0.0000000001
40
0
40
0
40
0
40
1
40
1
40
1
10
-7.8391119068809223
20
0.3979284575879416
30
0
10
-7.8391119068809223
20
1.8822390845715842
30
0
10
-7.132427317494936
20
2.6844222358167014
30
0
0
SPLINE
5
218
100
AcDbEntity
8
0
100
AcDbSpline
70
0
71
2
72
6
73
3
74
0
42
0.000000001
43
0.0000000001
44
0.0000000001
40
0
40
0
40
0
40
1
40
1
40
1
10
-7.132427317494936
20
2.6844222358167014
30
0
10
-6.4257403439231586
20
3.486604194968923
30
0
10
-5.4161926335044575
20
3.486604194968923
30
0
0
SPLINE
5
219
100
AcDbEntity
8
0
100
AcDbSpline
70
0
71
2
72
6
73
3
74
0
42
0.000000001
43
0.0000000001
44
0.0000000001
40
0
40
0
40
0
40
1
40
1
40
1
10
-5.4161926335044575
20
3.486604194968923
30
0
10
-4.919602496022768
20
3.486604194968923
30
0
10
-4.43665466963727
20
3.2383103183209738
30
0
0
SPLINE
5
220
100
AcDbEntity
8
0
100
AcDbSpline
70
0
71
2
72
6
73
3
74
0
42
0.000000001
43
0.0000000001
44
0.0000000001
40
0
40
0
40
0
40
1
40
1
40
1
10
-4.43665466963727
20
3.2383103183209738
30
0
10
-3.9537092274375629
20
2.9900152495801291
30
0
10
-3.6044593876548481
20
2.5043399146497092
30
0
0
LINE
5
221
100
AcDbEntity
8
0
100
AcDbLine
10
-3.6044593876548481
20
2.5043399146497092
30
0
11
-3.6044593876548481
21
3.3556361010968527
31
0
0
LINE
5
222
100
AcDbEntity
8
0
100
AcDbLine
10
-3.6044593876548481
20
3.3556361010968527
30
0
11
-2.1801754063316059
21
3.3556361010968527
31
0
0
SPLINE
5
223
100
AcDbEntity
8
0
100
AcDbSpline
70
0
71
2
72
6
73
3
74
0
42
0.000000001
43
0.0000000001
44
0.0000000001
40
0
40
0
40
0
40
1
40
1
40
1
10
-3.7026854580589008
20
0.33244381460545869
30
0
10
-3.7026854580589008
20
1.2328530362546286
30
0
10
-3.9864512509055805
20
1.6639585307538352
30
0
0
SPLINE
5
224
100
AcDbEntity
8
0
100
AcDbSpline
70
0
71
2
72
6
73
3
74
0
42
0.000000001
43
0.0000000001
44
0.0000000001
40
0
40
0
40
0
40
1
40
1
40
1
10
-3.9864512509055805
20
1.6639585307538352
30
0
10
-4.3848129337974262
20
2.2751451543271384
30
0
10
-5.0451131886192035
20
2.2751451543271384
30
0
0
SPLINE
5
225
100
AcDbEntity
8
0
100
AcDbSpline
70
0
71
2
72
6
73
3
74
0
42
0.000000001
43
0.0000000001
44
0.0000000001
40
0
40
0
40
0
40
1
40
1
40
1
10
-5.0451131886192035
20
2.2751451543271384
30
0
10
-5.5526181286521625
20
2.2751451543271384
30
0
10
-5.910052878255434
20
1.8413115552365622
30
0
0
SPLINE
5
226
100
AcDbEntity
8
0
100
AcDbSpline
70
0
71
2
72
6
73
3
74
0
42
0.000000001
43
0.0000000001
44
0.0000000001
40
0
40
0
40
0
40
1
40
1
40
1
10
-5.910052878255434
20
1.8413115552365622
30
0
10
-6.2674876278587055
20
1.407477956145986
30
0
10
-6.2674876278587055
20
0.47432611498235078
30
0
0
SPLINE
5
227
100
AcDbEntity
8
0
100
AcDbSpline
70
0
71
2
72
6
73
3
74
0
42
0.000000001
43
0.0000000001
44
0.0000000001
40
0
40
0
40
0
40
1
40
1
40
1
10
-6.2674876278587055
20
0.47432611498235078
30
0
10
-6.2674876278587055
20
-0.51885177579523711
30
0
10
-5.9073229855247211
20
-0.95814277616144805
30
0
0
SPLINE
5
228
100
AcDbEntity
8
0
100
AcDbSpline
70
0
71
2
72
6
73
3
74
0
42
0.000000001
43
0.0000000001
44
0.0000000001
40
0
40
0
40
0
40
1
40
1
40
1
10
-5.9073229855247211
20
-0.95814277616144805
30
0
10
-5.5471607273765278
20
-1.397433776527659
30
0
10
-4.9850865429588032
20
-1.397433776527659
30
0
0
SPLINE
5
229
100
AcDbEntity
8
0
100
AcDbSpline
70
0
71
2
72
6
73
3
74
0
42
0.000000001
43
0.0000000001
44
0.0000000001
40
0
40
0
40
0
40
1
40
1
40
1
10
-4.9850865429588032
20
-1.397433776527659
30
0
10
-4.4339271610923481
20
-1.397433776527659
30
0
10
-4.0683051174827289
20
-0.96905638661982207
30
0
0
SPLINE
5
230
100
AcDbEntity
8
0
100
AcDbSpline
70
0
71
2
72
6
73
3
74
0
42
0.000000001
43
0.0000000001
44
0.0000000001
40
0
40
0
40
0
40
1
40
1
40
1
10
-4.0683051174827289
20
-0.96905638661982207
30
0
10
-3.7026854580589008
20
-0.54068018880488067
30
0
10
-3.7026854580589008
20
0.33244381460545869
30
0
0
ENDSEC
0
SECTION
2
OBJECTS
0
DICTIONARY
5
C
100
AcDbDictionary
3
ACAD_GROUP
350
D
3
ACAD_MLINESTYLE
350
17
0
DICTIONARY
5
D
100
AcDbDictionary
0
DICTIONARY
5
1A
330
C
100
AcDbDictionary
0
DICTIONARY
5
17
100
AcDbDictionary
0
ENDSEC
0
EOF
